<svg xmlns="http://www.w3.org/2000/svg" xmlns:xlink="http://www.w3.org/1999/xlink" width="1037" zoomAndPan="magnify" viewBox="0 0 777.75 567.750005" height="757" preserveAspectRatio="xMidYMid meet" version="1.0"><defs><g/><clipPath id="e71f3a0e2e"><path d="M 284.917969 169.71875 L 425.855469 169.71875 L 425.855469 315.902344 L 284.917969 315.902344 Z M 284.917969 169.71875 " clip-rule="nonzero"/></clipPath></defs><g fill="#2e6417" fill-opacity="1"><g transform="translate(122.799176, 260.625826)"><g><path d="M 51.171875 0 C 46.984375 -7.445312 42.445312 -14.800781 37.5625 -22.0625 C 32.675781 -29.332031 27.476562 -36.191406 21.96875 -42.640625 L 21.96875 0 L 7.515625 0 L 7.515625 -65.078125 L 19.4375 -65.078125 C 21.5 -63.015625 23.78125 -60.476562 26.28125 -57.46875 C 28.789062 -54.46875 31.34375 -51.257812 33.9375 -47.84375 C 36.539062 -44.4375 39.125 -40.898438 41.6875 -37.234375 C 44.257812 -33.566406 46.671875 -30.046875 48.921875 -26.671875 L 48.921875 -65.078125 L 63.484375 -65.078125 L 63.484375 0 Z M 51.171875 0 "/></g></g></g><g fill="#545454" fill-opacity="1"><g transform="translate(193.795255, 260.625826)"><g><path d="M 4.21875 -24.328125 C 4.21875 -28.703125 4.890625 -32.53125 6.234375 -35.8125 C 7.585938 -39.101562 9.359375 -41.84375 11.546875 -44.03125 C 13.742188 -46.226562 16.265625 -47.890625 19.109375 -49.015625 C 21.953125 -50.140625 24.878906 -50.703125 27.890625 -50.703125 C 34.898438 -50.703125 40.4375 -48.554688 44.5 -44.265625 C 48.570312 -39.984375 50.609375 -33.679688 50.609375 -25.359375 C 50.609375 -24.546875 50.578125 -23.648438 50.515625 -22.671875 C 50.453125 -21.703125 50.390625 -20.84375 50.328125 -20.09375 L 18.59375 -20.09375 C 18.90625 -17.21875 20.25 -14.929688 22.625 -13.234375 C 25.007812 -11.546875 28.203125 -10.703125 32.203125 -10.703125 C 34.773438 -10.703125 37.296875 -10.9375 39.765625 -11.40625 C 42.242188 -11.875 44.265625 -12.453125 45.828125 -13.140625 L 47.703125 -1.78125 C 46.953125 -1.40625 45.953125 -1.03125 44.703125 -0.65625 C 43.453125 -0.28125 42.054688 0.046875 40.515625 0.328125 C 38.984375 0.609375 37.34375 0.84375 35.59375 1.03125 C 33.84375 1.21875 32.085938 1.3125 30.328125 1.3125 C 25.890625 1.3125 22.023438 0.65625 18.734375 -0.65625 C 15.441406 -1.96875 12.71875 -3.765625 10.5625 -6.046875 C 8.40625 -8.335938 6.804688 -11.046875 5.765625 -14.171875 C 4.734375 -17.304688 4.21875 -20.691406 4.21875 -24.328125 Z M 37.09375 -29.671875 C 37.03125 -30.859375 36.828125 -32.015625 36.484375 -33.140625 C 36.140625 -34.273438 35.609375 -35.28125 34.890625 -36.15625 C 34.171875 -37.03125 33.257812 -37.75 32.15625 -38.3125 C 31.0625 -38.875 29.703125 -39.15625 28.078125 -39.15625 C 26.515625 -39.15625 25.164062 -38.890625 24.03125 -38.359375 C 22.90625 -37.828125 21.96875 -37.125 21.21875 -36.25 C 20.46875 -35.375 19.890625 -34.351562 19.484375 -33.1875 C 19.078125 -32.03125 18.78125 -30.859375 18.59375 -29.671875 Z M 37.09375 -29.671875 "/></g></g></g><g fill="#545454" fill-opacity="1"><g transform="translate(248.63065, 260.625826)"><g><path d="M 52.78125 -24.796875 C 52.78125 -20.910156 52.210938 -17.351562 51.078125 -14.125 C 49.953125 -10.90625 48.328125 -8.148438 46.203125 -5.859375 C 44.078125 -3.578125 41.523438 -1.8125 38.546875 -0.5625 C 35.578125 0.6875 32.242188 1.3125 28.546875 1.3125 C 24.910156 1.3125 21.609375 0.6875 18.640625 -0.5625 C 15.671875 -1.8125 13.117188 -3.578125 10.984375 -5.859375 C 8.859375 -8.148438 7.195312 -10.90625 6 -14.125 C 4.8125 -17.351562 4.21875 -20.910156 4.21875 -24.796875 C 4.21875 -28.671875 4.828125 -32.203125 6.046875 -35.390625 C 7.273438 -38.585938 8.96875 -41.3125 11.125 -43.5625 C 13.289062 -45.820312 15.859375 -47.578125 18.828125 -48.828125 C 21.796875 -50.078125 25.035156 -50.703125 28.546875 -50.703125 C 32.117188 -50.703125 35.390625 -50.078125 38.359375 -48.828125 C 41.335938 -47.578125 43.890625 -45.820312 46.015625 -43.5625 C 48.140625 -41.3125 49.796875 -38.585938 50.984375 -35.390625 C 52.179688 -32.203125 52.78125 -28.671875 52.78125 -24.796875 Z M 38.5 -24.796875 C 38.5 -29.109375 37.640625 -32.5 35.921875 -34.96875 C 34.203125 -37.445312 31.742188 -38.6875 28.546875 -38.6875 C 25.359375 -38.6875 22.882812 -37.445312 21.125 -34.96875 C 19.375 -32.5 18.5 -29.109375 18.5 -24.796875 C 18.5 -20.472656 19.375 -17.039062 21.125 -14.5 C 22.882812 -11.96875 25.359375 -10.703125 28.546875 -10.703125 C 31.742188 -10.703125 34.203125 -11.96875 35.921875 -14.5 C 37.640625 -17.039062 38.5 -20.472656 38.5 -24.796875 Z M 38.5 -24.796875 "/></g></g></g><g fill="#545454" fill-opacity="1"><g transform="translate(305.636633, 260.625826)"><g/></g></g><g fill="#545454" fill-opacity="1"><g transform="translate(328.17173, 260.625826)"><g/></g></g><g fill="#545454" fill-opacity="1"><g transform="translate(350.706827, 260.625826)"><g/></g></g><g fill="#545454" fill-opacity="1"><g transform="translate(373.241924, 260.625826)"><g/></g></g><g fill="#2e6417" fill-opacity="1"><g transform="translate(395.784434, 260.625826)"><g><path d="M 29.203125 0.84375 C 25.640625 0.84375 22.085938 0.734375 18.546875 0.515625 C 15.003906 0.296875 11.328125 -0.21875 7.515625 -1.03125 L 7.515625 -64.140625 C 10.515625 -64.703125 13.796875 -65.125 17.359375 -65.40625 C 20.929688 -65.6875 24.253906 -65.828125 27.328125 -65.828125 C 31.460938 -65.828125 35.265625 -65.53125 38.734375 -64.9375 C 42.210938 -64.34375 45.203125 -63.320312 47.703125 -61.875 C 50.203125 -60.4375 52.15625 -58.546875 53.5625 -56.203125 C 54.976562 -53.859375 55.6875 -50.960938 55.6875 -47.515625 C 55.6875 -42.316406 53.179688 -38.21875 48.171875 -35.21875 C 52.304688 -33.644531 55.125 -31.515625 56.625 -28.828125 C 58.125 -26.140625 58.875 -23.101562 58.875 -19.71875 C 58.875 -12.894531 56.382812 -7.757812 51.40625 -4.3125 C 46.4375 -0.875 39.035156 0.84375 29.203125 0.84375 Z M 21.78125 -28.359375 L 21.78125 -11.546875 C 22.84375 -11.421875 24 -11.328125 25.25 -11.265625 C 26.507812 -11.203125 27.890625 -11.171875 29.390625 -11.171875 C 33.773438 -11.171875 37.3125 -11.796875 40 -13.046875 C 42.695312 -14.304688 44.046875 -16.625 44.046875 -20 C 44.046875 -23.007812 42.914062 -25.15625 40.65625 -26.4375 C 38.40625 -27.71875 35.179688 -28.359375 30.984375 -28.359375 Z M 21.78125 -39.53125 L 28.921875 -39.53125 C 33.429688 -39.53125 36.65625 -40.109375 38.59375 -41.265625 C 40.53125 -42.429688 41.5 -44.296875 41.5 -46.859375 C 41.5 -49.484375 40.5 -51.328125 38.5 -52.390625 C 36.5 -53.460938 33.554688 -54 29.671875 -54 C 28.421875 -54 27.070312 -53.984375 25.625 -53.953125 C 24.1875 -53.921875 22.90625 -53.84375 21.78125 -53.71875 Z M 21.78125 -39.53125 "/></g></g></g><g fill="#545454" fill-opacity="1"><g transform="translate(458.885549, 260.625826)"><g><path d="M 36.34375 -37 C 35.09375 -37.3125 33.617188 -37.640625 31.921875 -37.984375 C 30.234375 -38.328125 28.421875 -38.5 26.484375 -38.5 C 25.609375 -38.5 24.554688 -38.421875 23.328125 -38.265625 C 22.109375 -38.109375 21.1875 -37.9375 20.5625 -37.75 L 20.5625 0 L 6.578125 0 L 6.578125 -46.765625 C 9.078125 -47.640625 12.03125 -48.46875 15.4375 -49.25 C 18.851562 -50.03125 22.660156 -50.421875 26.859375 -50.421875 C 27.609375 -50.421875 28.515625 -50.375 29.578125 -50.28125 C 30.640625 -50.1875 31.703125 -50.0625 32.765625 -49.90625 C 33.835938 -49.75 34.90625 -49.5625 35.96875 -49.34375 C 37.03125 -49.125 37.9375 -48.859375 38.6875 -48.546875 Z M 36.34375 -37 "/></g></g></g><g fill="#545454" fill-opacity="1"><g transform="translate(498.509759, 260.625826)"><g><path d="M 4.21875 -24.328125 C 4.21875 -28.703125 4.890625 -32.53125 6.234375 -35.8125 C 7.585938 -39.101562 9.359375 -41.84375 11.546875 -44.03125 C 13.742188 -46.226562 16.265625 -47.890625 19.109375 -49.015625 C 21.953125 -50.140625 24.878906 -50.703125 27.890625 -50.703125 C 34.898438 -50.703125 40.4375 -48.554688 44.5 -44.265625 C 48.570312 -39.984375 50.609375 -33.679688 50.609375 -25.359375 C 50.609375 -24.546875 50.578125 -23.648438 50.515625 -22.671875 C 50.453125 -21.703125 50.390625 -20.84375 50.328125 -20.09375 L 18.59375 -20.09375 C 18.90625 -17.21875 20.25 -14.929688 22.625 -13.234375 C 25.007812 -11.546875 28.203125 -10.703125 32.203125 -10.703125 C 34.773438 -10.703125 37.296875 -10.9375 39.765625 -11.40625 C 42.242188 -11.875 44.265625 -12.453125 45.828125 -13.140625 L 47.703125 -1.78125 C 46.953125 -1.40625 45.953125 -1.03125 44.703125 -0.65625 C 43.453125 -0.28125 42.054688 0.046875 40.515625 0.328125 C 38.984375 0.609375 37.34375 0.84375 35.59375 1.03125 C 33.84375 1.21875 32.085938 1.3125 30.328125 1.3125 C 25.890625 1.3125 22.023438 0.65625 18.734375 -0.65625 C 15.441406 -1.96875 12.71875 -3.765625 10.5625 -6.046875 C 8.40625 -8.335938 6.804688 -11.046875 5.765625 -14.171875 C 4.734375 -17.304688 4.21875 -20.691406 4.21875 -24.328125 Z M 37.09375 -29.671875 C 37.03125 -30.859375 36.828125 -32.015625 36.484375 -33.140625 C 36.140625 -34.273438 35.609375 -35.28125 34.890625 -36.15625 C 34.171875 -37.03125 33.257812 -37.75 32.15625 -38.3125 C 31.0625 -38.875 29.703125 -39.15625 28.078125 -39.15625 C 26.515625 -39.15625 25.164062 -38.890625 24.03125 -38.359375 C 22.90625 -37.828125 21.96875 -37.125 21.21875 -36.25 C 20.46875 -35.375 19.890625 -34.351562 19.484375 -33.1875 C 19.078125 -32.03125 18.78125 -30.859375 18.59375 -29.671875 Z M 37.09375 -29.671875 "/></g></g></g><g fill="#545454" fill-opacity="1"><g transform="translate(553.345154, 260.625826)"><g><path d="M 4.21875 -24.328125 C 4.21875 -28.703125 4.890625 -32.53125 6.234375 -35.8125 C 7.585938 -39.101562 9.359375 -41.84375 11.546875 -44.03125 C 13.742188 -46.226562 16.265625 -47.890625 19.109375 -49.015625 C 21.953125 -50.140625 24.878906 -50.703125 27.890625 -50.703125 C 34.898438 -50.703125 40.4375 -48.554688 44.5 -44.265625 C 48.570312 -39.984375 50.609375 -33.679688 50.609375 -25.359375 C 50.609375 -24.546875 50.578125 -23.648438 50.515625 -22.671875 C 50.453125 -21.703125 50.390625 -20.84375 50.328125 -20.09375 L 18.59375 -20.09375 C 18.90625 -17.21875 20.25 -14.929688 22.625 -13.234375 C 25.007812 -11.546875 28.203125 -10.703125 32.203125 -10.703125 C 34.773438 -10.703125 37.296875 -10.9375 39.765625 -11.40625 C 42.242188 -11.875 44.265625 -12.453125 45.828125 -13.140625 L 47.703125 -1.78125 C 46.953125 -1.40625 45.953125 -1.03125 44.703125 -0.65625 C 43.453125 -0.28125 42.054688 0.046875 40.515625 0.328125 C 38.984375 0.609375 37.34375 0.84375 35.59375 1.03125 C 33.84375 1.21875 32.085938 1.3125 30.328125 1.3125 C 25.890625 1.3125 22.023438 0.65625 18.734375 -0.65625 C 15.441406 -1.96875 12.71875 -3.765625 10.5625 -6.046875 C 8.40625 -8.335938 6.804688 -11.046875 5.765625 -14.171875 C 4.734375 -17.304688 4.21875 -20.691406 4.21875 -24.328125 Z M 37.09375 -29.671875 C 37.03125 -30.859375 36.828125 -32.015625 36.484375 -33.140625 C 36.140625 -34.273438 35.609375 -35.28125 34.890625 -36.15625 C 34.171875 -37.03125 33.257812 -37.75 32.15625 -38.3125 C 31.0625 -38.875 29.703125 -39.15625 28.078125 -39.15625 C 26.515625 -39.15625 25.164062 -38.890625 24.03125 -38.359375 C 22.90625 -37.828125 21.96875 -37.125 21.21875 -36.25 C 20.46875 -35.375 19.890625 -34.351562 19.484375 -33.1875 C 19.078125 -32.03125 18.78125 -30.859375 18.59375 -29.671875 Z M 37.09375 -29.671875 "/></g></g></g><g fill="#545454" fill-opacity="1"><g transform="translate(608.180549, 260.625826)"><g><path d="M 18.5 -25.078125 C 18.5 -20.753906 19.46875 -17.273438 21.40625 -14.640625 C 23.351562 -12.015625 26.234375 -10.703125 30.046875 -10.703125 C 31.296875 -10.703125 32.453125 -10.75 33.515625 -10.84375 C 34.585938 -10.9375 35.46875 -11.046875 36.15625 -11.171875 L 36.15625 -36.625 C 35.28125 -37.1875 34.132812 -37.65625 32.71875 -38.03125 C 31.3125 -38.40625 29.890625 -38.59375 28.453125 -38.59375 C 21.816406 -38.59375 18.5 -34.085938 18.5 -25.078125 Z M 50.140625 -1.59375 C 48.890625 -1.21875 47.453125 -0.859375 45.828125 -0.515625 C 44.203125 -0.171875 42.492188 0.125 40.703125 0.375 C 38.921875 0.625 37.101562 0.828125 35.25 0.984375 C 33.40625 1.140625 31.640625 1.21875 29.953125 1.21875 C 25.890625 1.21875 22.257812 0.625 19.0625 -0.5625 C 15.875 -1.75 13.179688 -3.453125 10.984375 -5.671875 C 8.796875 -7.898438 7.117188 -10.59375 5.953125 -13.75 C 4.796875 -16.914062 4.21875 -20.472656 4.21875 -24.421875 C 4.21875 -28.421875 4.71875 -32.03125 5.71875 -35.25 C 6.726562 -38.476562 8.171875 -41.21875 10.046875 -43.46875 C 11.921875 -45.726562 14.21875 -47.453125 16.9375 -48.640625 C 19.664062 -49.828125 22.785156 -50.421875 26.296875 -50.421875 C 28.234375 -50.421875 29.96875 -50.234375 31.5 -49.859375 C 33.039062 -49.484375 34.59375 -48.953125 36.15625 -48.265625 L 36.15625 -70.625 L 50.140625 -72.875 Z M 50.140625 -1.59375 "/></g></g></g><g clip-path="url(#e71f3a0e2e)"><path fill="#545454" d="M 356.734375 316.042969 C 356.652344 315.988281 356.5625 315.957031 356.464844 315.953125 C 356.203125 315.890625 355.960938 315.785156 355.742188 315.632812 C 355.519531 315.484375 355.332031 315.296875 355.179688 315.078125 C 355.027344 314.859375 354.917969 314.617188 354.851562 314.359375 C 354.785156 314.097656 354.769531 313.835938 354.800781 313.570312 C 354.867188 312.886719 355.074219 312.25 355.414062 311.65625 C 355.691406 311.132812 356.003906 310.632812 356.355469 310.15625 C 356.414062 310.089844 356.445312 310.011719 356.445312 309.921875 C 356.347656 309.960938 356.257812 310.015625 356.175781 310.082031 C 355.046875 310.917969 354.085938 311.917969 353.300781 313.082031 L 352.328125 314.453125 C 352.09375 314.773438 351.816406 315.042969 351.496094 315.269531 C 351.265625 315.445312 351.007812 315.570312 350.730469 315.644531 C 350.449219 315.722656 350.167969 315.746094 349.878906 315.710938 C 349.589844 315.675781 349.320312 315.589844 349.0625 315.453125 C 348.808594 315.3125 348.589844 315.128906 348.40625 314.90625 C 347.71875 314.09375 347.59375 313.152344 347.757812 312.125 C 347.828125 311.765625 347.929688 311.417969 348.0625 311.078125 C 347.863281 311.113281 347.792969 311.257812 347.703125 311.347656 C 347.304688 311.800781 346.960938 312.304688 346.601562 312.792969 C 346.371094 313.109375 346.109375 313.394531 345.804688 313.640625 C 344.8125 314.417969 343.621094 314.128906 343.113281 312.972656 C 342.769531 312.195312 342.804688 311.402344 343.003906 310.589844 C 343.292969 309.328125 343.980469 308.347656 345.066406 307.644531 C 345.683594 307.21875 346.171875 306.675781 346.527344 306.019531 C 347.558594 304.25 349.109375 303.054688 350.988281 302.261719 L 352.109375 301.808594 C 349.21875 300.292969 346.796875 298.25 344.539062 296.011719 C 342.257812 293.765625 340.410156 291.207031 338.996094 288.332031 C 338.921875 288.351562 338.886719 288.332031 338.886719 288.351562 C 337.351562 290.15625 335.527344 291.621094 333.664062 293.03125 C 329.132812 296.445312 324.179688 299.097656 318.941406 301.230469 C 317.390625 301.863281 315.871094 302.496094 314.300781 303.054688 C 313.828125 303.242188 313.347656 303.390625 312.855469 303.507812 C 312.691406 303.542969 312.601562 303.617188 312.582031 303.777344 C 312.566406 303.941406 312.292969 304.375 312.097656 304.644531 C 311.140625 305.785156 309.972656 306.636719 308.589844 307.191406 C 307.882812 307.480469 307.152344 307.710938 306.40625 307.878906 C 304.75 308.25 303.117188 308.699219 301.511719 309.234375 C 300.515625 309.558594 299.5 309.761719 298.457031 309.847656 C 297.734375 309.914062 297.023438 309.839844 296.324219 309.632812 C 296.097656 309.566406 295.886719 309.464844 295.691406 309.324219 C 295.023438 308.890625 294.789062 308.167969 295.0625 307.390625 C 295.246094 306.898438 295.535156 306.476562 295.929688 306.125 C 296.289062 305.769531 296.6875 305.453125 297.121094 305.1875 L 297.519531 304.933594 C 296.757812 304.699219 296.054688 304.574219 295.351562 304.410156 C 294.230469 304.175781 293.308594 304.5 292.53125 305.332031 C 291.753906 306.164062 291.429688 306.433594 290.871094 306.976562 C 290.433594 307.421875 289.945312 307.800781 289.40625 308.113281 C 289.027344 308.34375 288.617188 308.484375 288.179688 308.53125 C 288.007812 308.554688 287.839844 308.546875 287.675781 308.503906 C 287.507812 308.464844 287.355469 308.394531 287.214844 308.296875 C 287.078125 308.195312 286.960938 308.074219 286.867188 307.929688 C 286.773438 307.789062 286.710938 307.632812 286.679688 307.464844 C 286.625 307.300781 286.589844 307.136719 286.40625 307.046875 C 285.378906 306.46875 284.980469 305.53125 284.945312 304.410156 C 284.933594 303.570312 285.132812 302.78125 285.539062 302.042969 C 286.207031 300.742188 287.238281 299.785156 288.484375 299.0625 C 289.257812 298.625 290.078125 298.308594 290.941406 298.105469 C 291.074219 298.101562 291.195312 298.058594 291.304688 297.980469 C 292.351562 297.292969 293.542969 296.894531 294.734375 296.550781 C 297.652344 295.703125 300.628906 295.386719 303.660156 295.59375 C 304.179688 295.675781 304.613281 295.519531 304.960938 295.125 C 307.039062 293.082031 309.332031 291.351562 311.679688 289.652344 C 314.398438 287.703125 317.21875 285.925781 320.152344 284.324219 L 320.605469 284.070312 C 321.585938 283.53125 322.386719 282.796875 323.007812 281.867188 C 325.679688 278.046875 328.410156 274.277344 331.191406 270.558594 C 332.058594 269.378906 333.011719 268.269531 334.046875 267.234375 C 335.238281 266.09375 336.554688 265.121094 338.128906 264.503906 C 338.488281 264.359375 338.863281 264.257812 339.246094 264.199219 C 339.375 264.179688 339.535156 264.199219 339.5 264 C 339.464844 263.800781 339.535156 263.582031 339.265625 263.546875 L 338.957031 263.511719 C 332.3125 263.09375 326.082031 261.269531 320.261719 258.039062 C 318.964844 257.316406 317.734375 256.488281 316.574219 255.5625 C 314.804688 254.136719 313.378906 252.417969 312.042969 250.613281 C 311.269531 249.585938 310.605469 248.488281 310.054688 247.324219 C 308.972656 245.050781 308.484375 242.628906 308.394531 240.117188 C 308.328125 238.707031 308.492188 237.320312 308.878906 235.960938 C 309.011719 235.382812 309.109375 234.800781 309.167969 234.210938 C 309.378906 232.746094 309.679688 231.300781 310.074219 229.875 C 310.992188 226.585938 311.136719 223.246094 310.832031 219.867188 C 310.78125 219.351562 310.683594 218.847656 310.542969 218.347656 C 309.367188 214.265625 308.953125 210.148438 309.730469 205.957031 C 310.261719 203.144531 311.296875 200.53125 312.835938 198.117188 C 314.605469 195.316406 316.8125 192.933594 319.304688 190.78125 C 319.492188 190.644531 319.660156 190.488281 319.808594 190.3125 C 319.699219 190.246094 319.585938 190.234375 319.464844 190.277344 C 317.804688 190.453125 316.25 190.125 314.804688 189.28125 C 314.5 189.097656 314.214844 188.878906 313.957031 188.632812 C 314.046875 188.523438 314.121094 188.558594 314.191406 188.578125 C 314.429688 188.621094 314.667969 188.679688 314.894531 188.757812 C 316.234375 189.300781 317.640625 189.480469 319.050781 189.5 L 320.53125 189.5 C 320.742188 189.511719 320.929688 189.453125 321.09375 189.320312 C 322.695312 188.085938 324.382812 186.976562 326.152344 185.996094 C 326.242188 185.941406 326.386719 185.921875 326.421875 185.742188 C 326.28125 185.714844 326.144531 185.714844 326.007812 185.742188 C 324.378906 185.851562 322.773438 185.886719 321.164062 185.617188 C 320.015625 185.445312 318.949219 185.046875 317.96875 184.421875 C 317.375 184.046875 316.90625 183.550781 316.558594 182.941406 C 315.855469 181.660156 315.90625 180.394531 316.683594 179.148438 C 316.921875 178.78125 317.210938 178.460938 317.550781 178.191406 C 318.652344 177.339844 319.890625 176.828125 321.273438 176.65625 L 321.488281 176.65625 C 321.507812 176.65625 321.527344 176.691406 321.5625 176.726562 C 321.597656 176.765625 321.34375 176.980469 321.199219 177.050781 C 320.714844 177.359375 320.207031 177.628906 319.703125 177.917969 C 319.101562 178.277344 318.585938 178.730469 318.148438 179.273438 C 317.9375 179.539062 317.769531 179.828125 317.640625 180.140625 C 317.46875 180.554688 317.414062 180.980469 317.476562 181.421875 C 317.542969 181.863281 317.71875 182.253906 318.003906 182.597656 C 318.421875 183.097656 318.925781 183.476562 319.519531 183.738281 C 320.496094 184.207031 321.542969 184.386719 322.609375 184.496094 C 324.324219 184.65625 326.042969 184.550781 327.757812 184.367188 L 328.226562 184.316406 C 329.289062 184.226562 330.3125 183.988281 331.300781 183.59375 C 333.890625 182.566406 336.5625 181.847656 339.320312 181.441406 L 339.664062 181.386719 L 339.734375 181.316406 C 339.539062 181.230469 339.332031 181.171875 339.121094 181.136719 C 336.152344 180.476562 333.316406 179.453125 330.613281 178.0625 C 328.625 177 326.78125 175.734375 325.210938 174.109375 C 324.511719 173.414062 323.921875 172.636719 323.441406 171.777344 C 323.253906 171.464844 323.109375 171.132812 323.007812 170.785156 C 322.9375 170.601562 322.914062 170.417969 322.933594 170.222656 C 322.933594 170.105469 322.96875 170 323.042969 169.90625 C 323.121094 169.816406 323.214844 169.757812 323.332031 169.738281 C 323.550781 169.71875 323.710938 169.828125 323.800781 170.117188 C 323.988281 170.636719 324.253906 171.109375 324.597656 171.542969 C 325.609375 172.953125 326.910156 174.089844 328.320312 175.082031 C 330.628906 176.726562 333.195312 177.902344 335.851562 178.839844 C 338.503906 179.761719 341.214844 180.464844 343.980469 180.953125 C 344.269531 180.996094 344.558594 181.019531 344.847656 181.027344 C 352.308594 181.0625 359.261719 183.050781 365.730469 186.734375 C 369.480469 188.820312 372.765625 191.480469 375.578125 194.71875 C 378.945312 198.617188 381.191406 203.078125 382.316406 208.105469 C 383.398438 212.75 383.542969 217.445312 382.984375 222.179688 C 382.640625 225.015625 382.027344 227.761719 380.941406 230.417969 L 380.886719 230.597656 C 381.050781 230.6875 381.175781 230.5625 381.285156 230.507812 C 382.746094 229.890625 384.25 229.746094 385.800781 230.074219 C 388.582031 230.632812 390.535156 232.710938 390.984375 235.511719 C 391.292969 237.355469 391.039062 239.140625 390.445312 240.894531 C 388.910156 245.246094 386.109375 248.519531 381.953125 250.578125 C 380.15625 251.511719 378.25 251.921875 376.226562 251.804688 C 375.539062 251.765625 374.871094 251.632812 374.222656 251.40625 C 374.074219 251.328125 373.917969 251.285156 373.75 251.28125 C 373.679688 251.789062 373.355469 252.148438 373.011719 252.511719 L 372.289062 253.195312 C 371.117188 254.335938 369.882812 255.402344 368.585938 256.394531 C 368.0625 256.824219 367.507812 257.207031 366.921875 257.550781 C 365.804688 258.199219 364.792969 258.996094 363.691406 259.664062 C 363.652344 259.683594 363.636719 259.71875 363.597656 259.753906 C 363.5625 259.789062 363.78125 259.84375 363.851562 259.863281 C 366.472656 260.355469 368.949219 261.253906 371.277344 262.554688 C 372.070312 262.957031 372.769531 263.488281 373.371094 264.144531 C 374.457031 265.371094 375.558594 266.582031 376.535156 267.902344 L 377.058594 268.660156 C 379.621094 266.65625 382.585938 265.949219 385.691406 265.75 C 388.800781 265.554688 391.851562 266.367188 394.597656 267.972656 C 395.941406 268.734375 397.171875 269.648438 398.285156 270.71875 C 398.902344 271.277344 399.40625 271.921875 399.800781 272.652344 C 399.949219 272.886719 400.050781 273.140625 400.109375 273.410156 C 400.164062 273.789062 400.398438 273.988281 400.703125 274.1875 C 401.789062 274.910156 402.710938 275.8125 403.59375 276.734375 C 405.765625 279.015625 407.675781 281.496094 409.320312 284.179688 C 409.503906 284.449219 409.648438 284.574219 409.988281 284.574219 C 410.332031 284.574219 410.984375 284.773438 411.453125 284.972656 C 412.492188 285.429688 413.453125 286.019531 414.324219 286.742188 C 414.5 286.898438 414.699219 287.007812 414.921875 287.066406 C 416.855469 287.519531 418.5 288.511719 419.945312 289.867188 C 421.390625 291.222656 422.292969 292.34375 423.015625 293.914062 C 423.304688 294.566406 423.683594 295.054688 424.332031 295.359375 C 424.640625 295.527344 424.917969 295.738281 425.164062 295.992188 C 425.363281 296.195312 425.507812 296.429688 425.597656 296.699219 C 425.6875 296.96875 425.71875 297.242188 425.6875 297.523438 C 425.65625 297.804688 425.566406 298.066406 425.417969 298.308594 C 425.269531 298.546875 425.078125 298.746094 424.839844 298.902344 L 424.714844 299.007812 C 424.734375 299.066406 424.757812 299.121094 424.785156 299.171875 C 425.054688 299.675781 424.964844 300.109375 424.53125 300.492188 C 424.445312 300.566406 424.351562 300.628906 424.242188 300.671875 C 424.097656 300.738281 424.03125 300.851562 424.042969 301.015625 C 424.027344 301.773438 423.59375 302.1875 422.925781 302.441406 C 422.855469 302.46875 422.78125 302.484375 422.707031 302.496094 C 421.875 302.566406 421.0625 302.804688 420.234375 302.839844 C 418.914062 302.925781 417.679688 302.644531 416.53125 301.988281 C 416.378906 301.867188 416.234375 301.871094 416.097656 302.007812 C 415.714844 302.320312 415.300781 302.574219 414.847656 302.765625 C 414.679688 302.855469 414.523438 302.960938 414.378906 303.09375 C 413.132812 304.15625 411.742188 304.953125 410.082031 305.1875 C 408.671875 305.355469 407.28125 305.257812 405.90625 304.898438 C 402.566406 304.089844 399.671875 302.480469 397.21875 300.074219 L 397 299.894531 C 396.859375 300.078125 396.710938 300.253906 396.550781 300.417969 C 395.867188 301.097656 395.097656 301.660156 394.238281 302.097656 C 392.703125 302.910156 391.058594 303.363281 389.359375 303.632812 C 386.652344 304.046875 383.941406 304.058594 381.230469 303.671875 C 381.015625 303.636719 380.804688 303.648438 380.597656 303.707031 C 378.136719 304.414062 375.625 304.769531 373.066406 304.773438 C 372.632812 304.753906 372.253906 304.972656 371.820312 304.972656 C 371.726562 304.972656 371.710938 305.078125 371.710938 305.167969 C 371.710938 305.257812 371.65625 305.691406 371.601562 305.945312 C 371.40625 306.855469 370.996094 307.65625 370.375 308.347656 C 369.984375 308.800781 369.558594 309.210938 369.089844 309.578125 C 368.445312 310.117188 367.847656 310.707031 367.300781 311.347656 C 366.765625 312.007812 366.175781 312.617188 365.53125 313.171875 C 364.648438 313.914062 363.671875 314.507812 362.535156 314.761719 C 362.265625 314.828125 361.996094 314.859375 361.71875 314.851562 C 361.089844 314.851562 360.511719 314.707031 360.09375 314.148438 L 359.625 314.652344 C 359.046875 315.304688 358.378906 315.828125 357.492188 315.992188 C 357.476562 315.992188 357.457031 316.027344 357.4375 316.042969 Z M 347.285156 306.234375 C 347.445312 306.226562 347.589844 306.179688 347.71875 306.089844 C 348.820312 305.546875 349.960938 305.023438 351.117188 304.589844 C 351.296875 304.519531 351.476562 304.410156 351.710938 304.519531 C 351.542969 304.722656 351.335938 304.886719 351.097656 305.007812 C 349.761719 305.800781 348.425781 306.578125 347.105469 307.390625 C 346.328125 307.84375 345.617188 308.386719 344.972656 309.015625 C 344.335938 309.664062 343.9375 310.433594 343.78125 311.328125 C 343.671875 311.789062 343.703125 312.242188 343.871094 312.683594 C 344.144531 313.351562 344.757812 313.535156 345.355469 313.117188 C 345.574219 312.953125 345.765625 312.761719 345.933594 312.539062 C 346.183594 312.195312 346.4375 311.835938 346.707031 311.492188 C 347.160156 310.875 347.734375 310.40625 348.425781 310.082031 C 348.5625 310.027344 348.671875 309.9375 348.75 309.8125 C 349.296875 309.019531 349.925781 308.300781 350.648438 307.664062 C 351.355469 307.023438 352.109375 306.4375 352.90625 305.910156 C 353.070312 305.789062 353.25 305.699219 353.445312 305.640625 C 353.507812 305.621094 353.558594 305.636719 353.589844 305.691406 C 353.59375 305.738281 353.582031 305.78125 353.554688 305.820312 C 353.441406 305.972656 353.316406 306.109375 353.175781 306.234375 L 352.199219 307.15625 C 351.171875 308.148438 350.214844 309.199219 349.507812 310.460938 C 349.175781 311.03125 348.941406 311.640625 348.804688 312.285156 C 348.660156 312.917969 348.738281 313.519531 349.039062 314.09375 C 349.507812 314.980469 350.449219 315.160156 351.242188 314.546875 C 351.527344 314.316406 351.761719 314.046875 351.949219 313.730469 C 352.308594 313.191406 352.652344 312.628906 353.011719 312.105469 C 354.058594 310.566406 355.410156 309.371094 357.058594 308.511719 C 357.273438 308.382812 357.503906 308.292969 357.746094 308.242188 C 357.925781 308.210938 358.070312 308.265625 358.179688 308.410156 C 358.292969 308.554688 358.308594 308.707031 358.234375 308.871094 C 358.160156 309.035156 358.070312 309.183594 357.964844 309.324219 L 357.078125 310.554688 C 356.652344 311.15625 356.292969 311.792969 355.992188 312.46875 C 355.796875 312.910156 355.703125 313.375 355.703125 313.859375 C 355.710938 314.167969 355.8125 314.441406 356.011719 314.675781 C 356.214844 314.910156 356.464844 315.054688 356.769531 315.105469 C 357.253906 315.210938 357.695312 315.113281 358.089844 314.816406 C 358.496094 314.539062 358.847656 314.203125 359.136719 313.804688 L 360.4375 312.050781 C 361.0625 311.191406 361.796875 310.4375 362.640625 309.792969 C 362.859375 309.601562 363.113281 309.492188 363.402344 309.46875 C 363.339844 309.734375 363.21875 309.96875 363.039062 310.171875 C 362.605469 310.734375 362.171875 311.292969 361.757812 311.871094 C 361.339844 312.449219 360.960938 312.9375 360.582031 313.480469 C 360.417969 313.695312 360.4375 313.75 360.65625 313.875 C 360.832031 313.980469 361.027344 314.042969 361.234375 314.058594 C 361.550781 314.09375 361.863281 314.074219 362.171875 314.003906 C 362.929688 313.820312 363.617188 313.488281 364.230469 313.007812 C 365.015625 312.40625 365.707031 311.714844 366.308594 310.933594 C 366.898438 310.160156 367.566406 309.460938 368.3125 308.835938 C 368.585938 308.601562 368.855469 308.367188 369.109375 308.113281 C 370.03125 307.230469 370.574219 306.179688 370.625 304.898438 C 370.644531 304.484375 370.699219 304.066406 370.71875 303.652344 C 370.726562 303.492188 370.757812 303.335938 370.808594 303.183594 C 370.933594 302.910156 371.042969 302.894531 371.242188 303.128906 C 371.4375 303.363281 371.402344 303.542969 371.53125 303.707031 C 371.65625 303.867188 371.675781 303.632812 371.746094 303.578125 C 373.355469 302.097656 374.945312 300.597656 376.40625 298.972656 C 377.964844 297.292969 379.320312 295.460938 380.472656 293.480469 C 381.71875 291.242188 382.332031 288.855469 382.042969 286.273438 C 381.949219 285.3125 381.792969 284.359375 381.574219 283.417969 C 380.796875 279.914062 379.550781 276.554688 378.105469 273.265625 C 377.050781 270.949219 375.824219 268.726562 374.421875 266.601562 C 374.171875 266.183594 373.855469 265.824219 373.480469 265.515625 C 372.882812 265.066406 372.269531 264.632812 371.65625 264.199219 C 368.820312 262.101562 365.550781 261.199219 362.117188 260.710938 C 361.917969 260.695312 361.828125 260.730469 361.757812 260.929688 C 361.324219 262.046875 360.527344 262.898438 359.660156 263.691406 C 359.503906 263.871094 359.3125 263.984375 359.082031 264.035156 C 359.171875 263.777344 359.304688 263.539062 359.480469 263.332031 C 360.039062 262.570312 360.582031 261.796875 361.070312 261 C 361.140625 260.875 361.269531 260.785156 361.234375 260.621094 C 361.195312 260.457031 360.980469 260.585938 360.871094 260.621094 C 359.515625 261.144531 358.125 261.453125 356.734375 261.796875 L 356.519531 261.832031 C 356.4375 261.863281 356.375 261.839844 356.335938 261.757812 C 356.300781 261.679688 356.320312 261.613281 356.390625 261.5625 C 356.476562 261.441406 356.585938 261.34375 356.714844 261.273438 C 357.007812 261.09375 357.316406 260.941406 357.636719 260.820312 C 358.359375 260.550781 359.066406 260.261719 359.804688 260.023438 C 361.917969 259.355469 363.835938 258.289062 365.640625 257.042969 C 367.445312 255.796875 368.730469 254.660156 370.230469 253.414062 C 371.132812 252.671875 371.820312 251.75 372.613281 250.902344 C 372.722656 250.792969 372.703125 250.722656 372.59375 250.613281 C 372.488281 250.503906 372.34375 250.503906 372.398438 250.304688 C 372.761719 250.28125 373.117188 250.328125 373.460938 250.449219 C 374.066406 250.605469 374.683594 250.710938 375.304688 250.757812 C 378.105469 250.9375 380.652344 250.160156 382.945312 248.589844 C 385.546875 246.800781 387.390625 244.378906 388.566406 241.472656 C 389.1875 239.988281 389.5 238.441406 389.503906 236.828125 C 389.484375 235.78125 389.289062 234.753906 388.746094 233.847656 C 387.824219 232.3125 386.414062 231.589844 384.699219 231.410156 C 382.984375 231.230469 381.285156 231.71875 379.765625 232.585938 C 379.164062 232.957031 378.585938 233.367188 378.03125 233.8125 L 377.582031 234.15625 C 377.527344 234.203125 377.472656 234.203125 377.417969 234.15625 C 377.363281 234.101562 377.382812 234.046875 377.402344 233.992188 C 377.480469 233.835938 377.570312 233.6875 377.671875 233.542969 C 378.257812 232.652344 378.992188 231.902344 379.875 231.300781 C 380.046875 231.1875 380.164062 231.03125 380.21875 230.832031 C 381.074219 227.503906 381.589844 224.128906 381.773438 220.699219 C 381.972656 216.523438 381.738281 212.40625 380.761719 208.339844 C 379.785156 204.277344 377.925781 200.175781 375.214844 196.726562 C 373.152344 194.113281 370.75 191.859375 368.007812 189.96875 C 364.335938 187.402344 360.359375 185.484375 356.066406 184.207031 C 350.195312 182.453125 344.234375 182.003906 338.199219 183.121094 C 337.820312 183.195312 337.40625 183.210938 337.0625 183.375 C 335.632812 184.007812 334.136719 184.367188 332.617188 184.710938 C 332.054688 184.84375 331.507812 185.019531 330.972656 185.234375 C 328.128906 186.410156 325.449219 187.882812 322.933594 189.660156 C 319.863281 191.847656 317.117188 194.394531 314.859375 197.464844 C 312.601562 200.539062 310.976562 204.402344 310.578125 208.46875 C 310.375 210.753906 310.398438 213.035156 310.652344 215.3125 C 310.734375 216.367188 310.894531 217.410156 311.136719 218.441406 C 312.097656 222.160156 312.277344 225.898438 311.355469 229.675781 C 310.8125 231.84375 310.269531 234.03125 309.964844 236.234375 C 309.839844 237.136719 309.65625 238.003906 309.675781 238.90625 C 309.738281 240.839844 310.027344 242.734375 310.542969 244.597656 C 310.832031 245.609375 311.101562 246.640625 311.664062 247.542969 C 312.222656 248.445312 313.015625 249.691406 313.777344 250.722656 C 314.804688 252.078125 315.960938 253.324219 317.335938 254.296875 C 321.832031 257.492188 326.765625 259.726562 332.128906 261 C 334.207031 261.488281 336.304688 261.8125 338.398438 262.101562 C 340.496094 262.390625 342.246094 262.625 344.179688 262.753906 C 344.800781 262.761719 345.414062 262.835938 346.023438 262.96875 C 346.09375 262.988281 346.203125 262.988281 346.203125 263.167969 C 344.289062 263.546875 342.320312 263.546875 340.386719 263.601562 C 340.347656 263.722656 340.378906 263.828125 340.476562 263.910156 C 341.171875 265.03125 342.0625 265.964844 343.148438 266.710938 C 344.394531 267.539062 345.769531 267.957031 347.230469 268.171875 C 348.0625 268.300781 348.914062 268.316406 349.726562 268.515625 C 349.851562 268.535156 350.015625 268.515625 350.105469 268.679688 C 350.195312 268.839844 350.03125 268.75 349.996094 268.75 L 349.398438 268.875 C 348.28125 269.027344 347.164062 269.050781 346.039062 268.949219 C 343.332031 268.695312 341.253906 267.449219 339.917969 265.027344 C 339.753906 264.738281 339.753906 264.738281 339.464844 264.882812 C 338.652344 265.261719 337.875 265.699219 337.132812 266.203125 C 335.488281 267.304688 334.152344 268.714844 332.925781 270.25 C 330.738281 272.976562 328.714844 275.832031 326.65625 278.648438 C 325.664062 280.003906 324.6875 281.378906 323.675781 282.695312 C 323.105469 283.476562 322.402344 284.109375 321.5625 284.59375 L 319.992188 285.515625 C 315.574219 287.957031 311.4375 290.804688 307.578125 294.058594 C 306.910156 294.621094 306.261719 295.214844 305.574219 295.8125 C 305.898438 295.992188 306.242188 296.011719 306.550781 296.101562 C 306.835938 296.164062 307.105469 296.269531 307.363281 296.40625 C 307.433594 296.460938 307.578125 296.480469 307.542969 296.605469 C 307.507812 296.734375 307.417969 296.695312 307.328125 296.714844 C 307.015625 296.789062 306.703125 296.804688 306.386719 296.769531 C 304.78125 296.679688 303.171875 296.714844 301.5625 296.714844 C 299.066406 296.714844 296.605469 297.003906 294.175781 297.582031 C 293.929688 297.625 293.695312 297.695312 293.472656 297.800781 C 293.796875 297.890625 294.140625 297.78125 294.390625 298.015625 C 294.339844 298.140625 294.246094 298.160156 294.140625 298.179688 L 293.289062 298.359375 C 291.683594 298.648438 290.164062 299.152344 288.808594 300.109375 C 287.941406 300.695312 287.25 301.441406 286.734375 302.351562 C 286.277344 303.089844 286.089844 303.890625 286.171875 304.753906 C 286.210938 305.253906 286.359375 305.71875 286.625 306.144531 C 286.710938 306.136719 286.757812 306.085938 286.769531 306 C 287.148438 304.699219 287.851562 303.542969 288.683594 302.496094 C 289.410156 301.535156 290.300781 300.761719 291.359375 300.183594 C 292.425781 299.613281 293.5625 299.335938 294.773438 299.351562 C 294.953125 299.320312 295.117188 299.363281 295.257812 299.480469 C 295.117188 299.632812 294.941406 299.730469 294.734375 299.769531 C 294.390625 299.894531 294.03125 299.984375 293.6875 300.09375 C 290.671875 301.015625 288.757812 303.074219 287.691406 306 C 287.597656 306.277344 287.546875 306.558594 287.527344 306.847656 C 287.527344 307.519531 287.816406 307.734375 288.46875 307.535156 C 288.804688 307.40625 289.117188 307.234375 289.40625 307.011719 C 289.902344 306.632812 290.367188 306.21875 290.796875 305.765625 C 291.304688 305.257812 291.789062 304.753906 292.296875 304.265625 C 293.144531 303.453125 294.15625 303.21875 295.3125 303.433594 C 296.261719 303.621094 297.171875 303.929688 298.042969 304.355469 C 298.269531 304.480469 298.503906 304.492188 298.746094 304.394531 C 299.289062 304.164062 299.847656 303.988281 300.425781 303.867188 C 300.664062 303.800781 300.90625 303.789062 301.148438 303.832031 C 301 304.023438 300.8125 304.160156 300.589844 304.25 L 299.503906 304.773438 C 299.308594 304.832031 299.15625 304.953125 299.054688 305.132812 C 298.960938 305.296875 298.65625 305.152344 298.457031 305.277344 C 298.257812 305.402344 297.644531 305.765625 297.265625 306.054688 C 296.828125 306.351562 296.457031 306.710938 296.144531 307.136719 C 295.601562 307.953125 295.800781 308.511719 296.722656 308.765625 C 297.234375 308.898438 297.75 308.941406 298.277344 308.890625 C 299.480469 308.78125 300.648438 308.515625 301.78125 308.097656 C 303.042969 307.636719 304.332031 307.269531 305.648438 306.992188 C 307.867188 306.558594 309.839844 305.640625 311.5 304.066406 C 311.625 303.992188 311.734375 303.894531 311.824219 303.777344 C 311.789062 303.671875 311.734375 303.671875 311.679688 303.652344 C 311.625 303.632812 311.425781 303.507812 311.609375 303.328125 C 311.75 303.210938 311.910156 303.113281 312.078125 303.039062 C 313.992188 302.097656 315.945312 301.285156 317.894531 300.4375 C 323.4375 298.09375 328.648438 295.152344 333.519531 291.621094 C 334.605469 290.824219 335.671875 290.011719 336.71875 289.164062 C 336.917969 289 337.027344 288.875 336.972656 288.585938 C 336.917969 288.296875 336.84375 287.988281 336.808594 287.699219 C 336.507812 285.722656 336.441406 283.734375 336.609375 281.738281 C 336.660156 281.347656 336.667969 280.957031 336.628906 280.566406 C 336.554688 279.988281 336.539062 279.410156 336.574219 278.832031 C 336.574219 278.6875 336.605469 278.546875 336.664062 278.414062 C 336.789062 278.46875 336.789062 278.558594 336.808594 278.648438 C 336.882812 279.066406 336.933594 279.5 337.027344 279.933594 C 337.960938 284.441406 339.878906 288.488281 342.769531 292.074219 C 345.714844 295.722656 349.273438 298.667969 353.140625 301.265625 C 353.285156 301.382812 353.449219 301.410156 353.628906 301.359375 C 354.710938 301.015625 355.8125 300.6875 356.878906 300.292969 C 358.367188 299.746094 359.5625 298.824219 360.472656 297.527344 C 360.726562 297.148438 361.015625 296.789062 361.269531 296.40625 C 361.992188 295.359375 362.714844 294.3125 363.507812 293.320312 C 364.304688 292.324219 365.476562 290.824219 366.777344 289.867188 C 366.761719 289.8125 366.761719 289.777344 366.722656 289.742188 C 365.882812 288.539062 365.230469 287.238281 364.773438 285.839844 C 363.695312 282.617188 362.90625 279.320312 362.40625 275.957031 C 362.292969 275.269531 362.25 274.578125 362.28125 273.882812 C 362.296875 273.71875 362.28125 273.539062 362.460938 273.429688 L 362.550781 273.554688 C 362.621094 273.746094 362.683594 273.9375 362.730469 274.132812 C 363.691406 277.980469 364.847656 281.773438 366.074219 285.570312 C 366.488281 286.816406 366.886719 288.0625 367.25 289.328125 C 367.390625 289.703125 367.347656 290.058594 367.121094 290.390625 L 366.652344 291.0625 C 365.332031 292.667969 364.03125 294.292969 362.839844 295.992188 C 362.226562 296.859375 361.648438 297.707031 360.980469 298.503906 C 360.277344 299.351562 359.4375 300.019531 358.449219 300.507812 C 357.527344 300.929688 356.574219 301.28125 355.597656 301.554688 C 354.476562 301.898438 353.320312 302.226562 352.199219 302.605469 C 350.195312 303.289062 348.640625 304.574219 347.285156 306.234375 Z M 400.269531 274.730469 C 399.710938 275.433594 399.152344 276.066406 398.808594 276.863281 C 398.679688 277.132812 398.535156 277.386719 398.410156 277.636719 C 396.550781 281.339844 395.175781 285.207031 394.671875 289.34375 C 394.449219 290.988281 394.4375 292.628906 394.636719 294.277344 C 394.871094 296.191406 395.84375 297.691406 397.253906 298.917969 C 398.449219 299.929688 399.730469 300.816406 401.101562 301.574219 C 403.125 302.75 405.257812 303.652344 407.605469 303.941406 C 410.296875 304.285156 412.753906 303.761719 414.832031 301.917969 C 415.597656 301.277344 416.203125 300.511719 416.65625 299.625 C 417.921875 297.023438 417.976562 294.382812 416.78125 291.746094 C 415.589844 289.109375 413.785156 287.519531 411.527344 286.09375 C 411.488281 286.058594 411.433594 286.019531 411.363281 286.128906 C 411.796875 287.167969 412.074219 288.242188 412.195312 289.363281 C 412.269531 289.851562 412.390625 290.324219 412.554688 290.789062 C 412.90625 291.8125 413.160156 292.863281 413.3125 293.933594 C 413.355469 294.183594 413.324219 294.421875 413.222656 294.65625 C 412.984375 294.40625 412.796875 294.125 412.664062 293.804688 C 412.285156 292.957031 411.921875 292.109375 411.527344 291.277344 C 410.476562 288.910156 409.285156 286.613281 407.949219 284.394531 C 405.800781 280.910156 403.199219 277.78125 400.398438 274.820312 Z M 377.507812 269.21875 C 377.476562 269.316406 377.496094 269.398438 377.5625 269.472656 C 378.617188 271.304688 379.527344 273.207031 380.292969 275.179688 C 381.574219 278.453125 382.621094 281.792969 383.144531 285.28125 C 383.417969 287.085938 383.417969 288.875 382.929688 290.664062 C 382.488281 292.246094 381.804688 293.71875 380.871094 295.070312 C 379.804688 296.695312 378.773438 298.324219 377.707031 299.949219 C 376.941406 301.179688 376.0625 302.324219 375.070312 303.382812 C 375.023438 303.417969 375.003906 303.464844 375.015625 303.527344 L 375.089844 303.5625 L 376.207031 303.382812 C 378.738281 302.964844 381.195312 302.332031 383.5625 301.285156 C 384.195312 300.996094 384.734375 300.585938 385.1875 300.058594 C 386.984375 297.925781 388.234375 295.511719 388.945312 292.8125 C 389.371094 291.078125 389.636719 289.320312 389.738281 287.539062 C 389.9375 283.890625 389.648438 280.292969 388.476562 276.808594 C 387.84375 274.945312 387.046875 273.175781 385.910156 271.570312 C 385.75 271.351562 385.550781 271.175781 385.3125 271.042969 C 383.257812 269.960938 381.074219 269.355469 378.753906 269.21875 C 378.339844 269.175781 377.925781 269.175781 377.507812 269.21875 Z M 383.742188 268.859375 C 384.132812 268.96875 384.496094 269.140625 384.824219 269.382812 C 386.347656 270.402344 387.503906 271.742188 388.292969 273.394531 C 389.390625 275.550781 390.144531 277.820312 390.550781 280.203125 C 391.3125 284.628906 391.003906 288.984375 389.792969 293.28125 C 389.1875 295.554688 388.152344 297.605469 386.6875 299.441406 C 386.648438 299.496094 386.578125 299.53125 386.632812 299.625 C 386.6875 299.714844 386.886719 299.515625 387.011719 299.441406 C 387.515625 299.171875 388.023438 298.882812 388.546875 298.628906 C 388.726562 298.523438 388.960938 298.339844 389.125 298.558594 C 389.289062 298.773438 389.089844 298.953125 388.960938 299.136719 C 388.621094 299.566406 388.230469 299.945312 387.789062 300.273438 C 386.332031 301.335938 384.765625 302.195312 383.089844 302.855469 C 382.9375 302.898438 382.796875 302.96875 382.675781 303.074219 C 382.824219 303.121094 382.972656 303.132812 383.128906 303.109375 C 384.515625 303.105469 385.902344 303.023438 387.28125 302.855469 C 389.035156 302.621094 390.75 302.296875 392.414062 301.648438 C 393.605469 301.195312 394.742188 300.617188 395.699219 299.75 C 396.1875 299.296875 396.1875 299.28125 395.71875 298.808594 C 394.628906 297.714844 393.933594 296.410156 393.640625 294.890625 C 393.4375 293.804688 393.355469 292.707031 393.386719 291.601562 C 393.4375 289.328125 393.769531 287.09375 394.382812 284.902344 C 395.175781 281.9375 396.367188 279.136719 398.15625 276.625 C 398.378906 276.316406 398.570312 275.992188 398.734375 275.652344 C 398.9375 275.214844 399.199219 274.824219 399.53125 274.476562 C 399.800781 274.207031 399.785156 274.222656 399.585938 273.882812 C 398.519531 272.003906 397.019531 270.539062 395.230469 269.382812 C 392.628906 267.683594 389.8125 266.726562 386.6875 266.800781 C 384.066406 266.855469 381.59375 267.523438 379.152344 268.460938 C 379.089844 268.488281 379.066406 268.539062 379.082031 268.605469 C 380.785156 268.578125 382.4375 268.867188 384.03125 269.472656 C 383.957031 269.21875 383.777344 269.113281 383.742188 268.859375 Z M 419.890625 302.152344 C 419.839844 302.050781 419.761719 301.984375 419.65625 301.953125 C 419.371094 301.8125 419.105469 301.644531 418.859375 301.449219 C 418.789062 301.375 418.660156 301.320312 418.734375 301.195312 C 418.804688 301.070312 418.894531 301.160156 418.96875 301.175781 L 419.636719 301.359375 C 420.300781 301.578125 420.980469 301.699219 421.679688 301.71875 C 422.136719 301.734375 422.578125 301.652344 422.996094 301.464844 C 423.257812 301.382812 423.425781 301.207031 423.503906 300.941406 C 422.96875 300.992188 422.441406 300.96875 421.914062 300.871094 C 421.261719 300.726562 420.703125 300.453125 420.523438 300.203125 C 420.9375 300.148438 421.351562 300.238281 421.769531 300.238281 C 422.398438 300.246094 423.011719 300.15625 423.609375 299.964844 C 423.820312 299.902344 424 299.796875 424.152344 299.640625 C 424.277344 299.519531 424.300781 299.382812 424.226562 299.226562 C 424.171875 299.082031 424.027344 299.152344 423.9375 299.152344 C 423.382812 299.207031 422.835938 299.171875 422.292969 299.046875 L 421.875 298.902344 C 421.800781 298.875 421.765625 298.820312 421.769531 298.738281 C 421.769531 298.652344 421.808594 298.605469 421.894531 298.59375 C 422.035156 298.550781 422.179688 298.527344 422.328125 298.523438 C 422.925781 298.46875 423.539062 298.414062 424.097656 298.160156 C 424.332031 298.089844 424.507812 297.945312 424.621094 297.726562 C 424.910156 297.113281 424.839844 296.734375 424.296875 296.316406 C 423.753906 295.902344 423.664062 295.867188 423.339844 295.648438 C 423.015625 295.4375 422.773438 295.15625 422.617188 294.800781 C 422.503906 294.519531 422.359375 294.253906 422.183594 294.003906 C 420.734375 291.832031 418.878906 290.082031 416.621094 288.765625 C 416.53125 288.710938 416.457031 288.621094 416.3125 288.695312 C 417.757812 290.535156 418.660156 292.597656 418.734375 294.960938 C 418.804688 297.328125 418.210938 299.515625 416.746094 301.429688 C 417.777344 301.753906 418.824219 301.992188 419.890625 302.152344 Z M 419.890625 302.152344 " fill-opacity="1" fill-rule="nonzero"/></g><path fill="#545454" d="M 360.457031 225.375 C 360.546875 225.753906 360.636719 226.082031 360.691406 226.40625 C 360.960938 228.339844 360.617188 230.109375 359.425781 231.699219 C 359.136719 232.070312 358.785156 232.371094 358.378906 232.601562 C 357.953125 232.871094 357.492188 233.023438 356.992188 233.050781 C 356.488281 233.082031 356.011719 232.984375 355.558594 232.765625 C 355.054688 232.527344 354.613281 232.203125 354.242188 231.789062 C 353.636719 231.132812 353.191406 230.378906 352.90625 229.53125 C 352.816406 229.316406 352.851562 229.207031 353.066406 229.097656 C 353.507812 228.839844 353.917969 228.539062 354.296875 228.195312 C 354.601562 227.960938 354.855469 227.675781 355.054688 227.34375 C 355.117188 227.261719 355.109375 227.183594 355.035156 227.109375 C 354.910156 226.992188 354.769531 226.890625 354.621094 226.804688 C 354.023438 226.472656 353.398438 226.214844 352.742188 226.027344 C 352.5625 225.992188 352.433594 225.9375 352.472656 225.683594 C 352.582031 224.496094 353.015625 223.445312 353.773438 222.523438 C 354.085938 222.195312 354.433594 221.910156 354.820312 221.671875 C 354.734375 221.605469 354.636719 221.582031 354.53125 221.601562 C 353.136719 221.640625 351.9375 222.144531 350.9375 223.117188 C 350.230469 223.785156 349.707031 224.601562 349.109375 225.359375 C 349.007812 225.519531 348.925781 225.6875 348.859375 225.863281 C 348.128906 227.621094 347.777344 229.453125 347.808594 231.355469 C 347.847656 232.242188 347.773438 233.125 347.828125 234.011719 C 347.828125 234.046875 347.808594 234.082031 347.808594 234.121094 C 347.808594 234.15625 347.664062 234.046875 347.628906 233.976562 C 346.996094 231.933594 346.746094 229.894531 347.179688 227.777344 C 347.375 226.75 347.574219 225.738281 347.992188 224.78125 C 348.457031 223.625 349.136719 222.613281 350.03125 221.746094 C 352.253906 219.667969 355.324219 219.269531 358.015625 220.734375 C 359.824219 221.710938 361.105469 223.191406 362.007812 225.015625 C 363.097656 227.15625 363.453125 229.417969 363.074219 231.789062 C 363.066406 232.09375 362.957031 232.359375 362.75 232.585938 C 362.597656 232.328125 362.519531 232.050781 362.515625 231.753906 C 362.445312 230.773438 362.28125 229.8125 362.027344 228.863281 C 361.746094 227.792969 361.335938 226.777344 360.800781 225.808594 C 360.726562 225.632812 360.613281 225.488281 360.457031 225.375 Z M 360.457031 225.375 " fill-opacity="1" fill-rule="nonzero"/><path fill="#545454" d="M 327.164062 234.246094 C 327.601562 232.835938 327.8125 231.390625 327.792969 229.910156 C 327.691406 230.011719 327.625 230.132812 327.597656 230.273438 C 327.410156 230.933594 327.097656 231.53125 326.65625 232.058594 C 326.078125 232.730469 325.355469 233.109375 324.433594 232.980469 C 323.871094 232.882812 323.390625 232.628906 322.988281 232.222656 C 322.4375 231.679688 322.023438 231.046875 321.742188 230.328125 C 321.671875 230.128906 321.707031 230.039062 321.90625 229.964844 C 322.402344 229.777344 322.867188 229.523438 323.296875 229.207031 C 324.109375 228.628906 324.109375 227.996094 323.3125 227.4375 C 322.777344 227.050781 322.1875 226.785156 321.542969 226.640625 C 321.328125 226.605469 321.238281 226.53125 321.273438 226.296875 C 321.417969 225.359375 321.671875 224.472656 322.210938 223.679688 C 322.753906 222.882812 323.167969 222.667969 323.890625 222.558594 L 324.019531 222.503906 C 324 222.359375 323.890625 222.339844 323.800781 222.304688 C 323.441406 222.140625 323.066406 222.0625 322.671875 222.082031 C 322.277344 222.097656 321.90625 222.203125 321.5625 222.394531 C 320.765625 222.828125 320.171875 223.480469 319.648438 224.203125 C 318.886719 225.25 318.402344 226.441406 318.019531 227.671875 C 317.964844 227.882812 317.882812 228.082031 317.769531 228.265625 C 317.738281 228.355469 317.679688 228.390625 317.585938 228.375 C 317.511719 228.347656 317.46875 228.292969 317.460938 228.210938 C 317.453125 228.054688 317.453125 227.898438 317.460938 227.742188 C 317.660156 225.792969 318.273438 224.003906 319.519531 222.449219 C 319.917969 221.925781 320.398438 221.496094 320.964844 221.167969 C 322.285156 220.425781 323.585938 220.460938 324.886719 221.203125 C 325.679688 221.660156 326.328125 222.269531 326.835938 223.027344 C 328.605469 225.628906 329.257812 228.484375 328.644531 231.589844 C 328.492188 232.453125 328.144531 233.222656 327.597656 233.902344 C 327.488281 234.03125 327.414062 234.191406 327.164062 234.246094 Z M 327.164062 234.246094 " fill-opacity="1" fill-rule="nonzero"/><path fill="#545454" d="M 330.613281 244.742188 C 330.492188 244.652344 330.363281 244.589844 330.214844 244.5625 C 329.636719 244.328125 329.09375 244.074219 328.699219 243.585938 C 328.589844 243.441406 328.535156 243.476562 328.425781 243.566406 C 328.320312 243.660156 328.175781 243.640625 328.101562 243.476562 C 328.054688 243.304688 328.066406 243.132812 328.132812 242.964844 C 328.199219 242.796875 328.308594 242.667969 328.460938 242.574219 C 328.714844 242.429688 328.949219 242.554688 328.894531 242.84375 C 328.84375 243.132812 328.988281 243.117188 329.113281 243.171875 C 330.703125 243.820312 332.347656 243.929688 334.007812 243.765625 C 336.25 243.550781 338.398438 242.988281 340.53125 242.375 L 341.578125 242.085938 C 341.632812 242.070312 341.722656 242.050781 341.742188 241.960938 C 341.757812 241.871094 341.488281 241.851562 341.378906 241.761719 C 341.269531 241.671875 341.199219 241.652344 341.214844 241.527344 C 341.234375 241.398438 341.34375 241.363281 341.433594 241.328125 L 341.558594 241.328125 C 342.308594 241.230469 343.03125 241.324219 343.726562 241.617188 C 343.945312 241.714844 344.125 241.859375 344.269531 242.050781 C 344.445312 242.273438 344.492188 242.519531 344.414062 242.792969 C 344.304688 243.226562 343.980469 243.316406 343.65625 242.988281 C 343.332031 242.664062 343.203125 242.554688 342.625 242.863281 C 341.8125 243.242188 340.976562 243.558594 340.113281 243.804688 C 339.898438 243.855469 339.730469 243.976562 339.609375 244.164062 C 339.246094 244.652344 338.777344 245.03125 338.328125 245.445312 C 337.578125 246.167969 336.769531 246.816406 335.90625 247.398438 C 335.097656 247.960938 334.207031 248.316406 333.230469 248.464844 C 332.914062 248.507812 332.59375 248.507812 332.273438 248.464844 C 330.628906 248.210938 330.195312 246.785156 330.324219 245.753906 C 330.375 245.402344 330.46875 245.066406 330.613281 244.742188 Z M 337.894531 244.472656 C 337.769531 244.4375 337.648438 244.441406 337.53125 244.488281 C 336.289062 244.789062 335.03125 244.96875 333.757812 245.03125 C 332.972656 245.0625 332.199219 245.015625 331.425781 244.886719 C 331.15625 244.851562 331.136719 244.851562 331.117188 245.140625 C 331.074219 245.453125 331.089844 245.769531 331.15625 246.078125 C 331.335938 247.019531 331.914062 247.488281 332.871094 247.433594 C 333.351562 247.394531 333.808594 247.273438 334.242188 247.074219 C 335.617188 246.457031 336.699219 245.445312 337.894531 244.472656 Z M 337.894531 244.472656 " fill-opacity="1" fill-rule="nonzero"/><path fill="#545454" d="M 382.222656 237.984375 C 382.34375 238.125 382.488281 238.234375 382.65625 238.3125 C 383.28125 238.675781 383.785156 239.164062 384.175781 239.773438 C 384.324219 240.011719 384.410156 240.269531 384.429688 240.550781 C 384.429688 240.675781 384.429688 240.820312 384.285156 240.894531 C 384.140625 240.964844 384.066406 240.875 383.996094 240.785156 C 383.929688 240.730469 383.859375 240.6875 383.777344 240.660156 C 382.964844 240.480469 382.1875 240.242188 381.355469 240.097656 C 381.320312 240.226562 381.410156 240.28125 381.484375 240.351562 C 382.40625 241.347656 382.621094 242.503906 382.132812 243.765625 C 381.644531 245.03125 380.707031 245.789062 379.316406 245.953125 C 378.605469 246.027344 377.90625 245.96875 377.21875 245.773438 C 377.019531 245.730469 376.847656 245.640625 376.695312 245.5 C 376.992188 245.375 377.296875 245.3125 377.617188 245.320312 C 378.050781 245.324219 378.476562 245.28125 378.898438 245.195312 C 379.984375 244.921875 380.742188 244.289062 381.066406 243.207031 C 381.394531 242.121094 381.015625 241.507812 380.21875 241.003906 C 379.761719 240.710938 379.261719 240.546875 378.71875 240.515625 C 378.53125 240.507812 378.34375 240.484375 378.160156 240.441406 C 378.039062 240.410156 377.929688 240.351562 377.835938 240.269531 C 377.738281 240.183594 377.667969 240.082031 377.621094 239.964844 C 377.578125 239.847656 377.558594 239.726562 377.570312 239.601562 C 377.582031 239.472656 377.621094 239.355469 377.691406 239.25 C 377.789062 239.070312 377.921875 238.917969 378.085938 238.796875 C 379.085938 237.972656 380.179688 237.308594 381.375 236.8125 C 382.386719 236.394531 383.433594 236.179688 384.535156 236.34375 C 385.3125 236.46875 386 236.738281 386.503906 237.335938 C 386.632812 237.480469 386.886719 237.640625 386.722656 237.839844 C 386.558594 238.039062 386.398438 237.824219 386.253906 237.75 C 384.878906 237.171875 383.578125 237.425781 382.222656 237.984375 Z M 382.222656 237.984375 " fill-opacity="1" fill-rule="nonzero"/><path fill="#545454" d="M 321.886719 207.382812 C 322.25 207.371094 322.59375 207.449219 322.917969 207.617188 C 323.042969 207.679688 323.152344 207.761719 323.246094 207.867188 C 323.339844 207.96875 323.410156 208.089844 323.457031 208.222656 C 323.5 208.355469 323.519531 208.488281 323.511719 208.628906 C 323.503906 208.769531 323.464844 208.902344 323.40625 209.027344 C 323.285156 209.261719 323.136719 209.472656 322.953125 209.660156 C 322.414062 210.207031 321.816406 210.679688 321.164062 211.085938 C 320.382812 211.628906 319.566406 212.105469 318.707031 212.515625 C 318.085938 212.828125 317.441406 212.882812 316.773438 212.675781 C 316.570312 212.640625 316.410156 212.535156 316.296875 212.359375 C 316.1875 212.183594 316.160156 211.992188 316.214844 211.792969 C 316.261719 211.550781 316.351562 211.328125 316.484375 211.125 C 317.480469 209.695312 318.636719 208.484375 320.242188 207.746094 C 320.765625 207.503906 321.3125 207.386719 321.886719 207.382812 Z M 317.695312 212.007812 L 317.839844 211.972656 C 318.058594 211.90625 318.269531 211.824219 318.472656 211.71875 C 319.683594 211.09375 320.796875 210.328125 321.816406 209.425781 C 321.992188 209.269531 322.152344 209.101562 322.300781 208.917969 C 322.484375 208.667969 322.445312 208.558594 322.140625 208.523438 C 321.695312 208.5 321.265625 208.578125 320.859375 208.757812 C 319.527344 209.28125 318.402344 210.085938 317.480469 211.175781 C 317.421875 211.242188 317.371094 211.316406 317.335938 211.394531 C 317.28125 211.53125 317.289062 211.664062 317.367188 211.789062 C 317.441406 211.917969 317.550781 211.988281 317.695312 212.007812 Z M 317.695312 212.007812 " fill-opacity="1" fill-rule="nonzero"/><path fill="#545454" d="M 354.476562 203.390625 C 356.046875 203.375 357.402344 204.113281 358.34375 205.59375 C 358.679688 206.085938 358.941406 206.617188 359.117188 207.183594 C 359.191406 207.378906 359.226562 207.574219 359.226562 207.78125 C 359.234375 207.886719 359.21875 207.984375 359.179688 208.082031 C 359.140625 208.179688 359.082031 208.265625 359.003906 208.335938 C 358.925781 208.40625 358.839844 208.453125 358.738281 208.484375 C 358.636719 208.515625 358.535156 208.519531 358.433594 208.503906 C 358.160156 208.476562 357.902344 208.402344 357.65625 208.285156 C 356.464844 207.78125 355.308594 207.148438 354.152344 206.554688 C 353.589844 206.289062 353.054688 205.980469 352.542969 205.632812 C 352.296875 205.480469 352.082031 205.292969 351.894531 205.070312 C 351.460938 204.546875 351.621094 203.96875 352.238281 203.714844 C 352.851562 203.464844 353.554688 203.390625 354.476562 203.390625 Z M 358.359375 207.726562 C 358.277344 207.371094 358.125 207.046875 357.910156 206.75 C 357.132812 205.503906 356.066406 204.691406 354.601562 204.476562 C 353.96875 204.386719 353.339844 204.3125 352.707031 204.277344 C 352.632812 204.277344 352.527344 204.242188 352.488281 204.367188 C 353.15625 205.089844 357.402344 207.546875 358.359375 207.726562 Z M 358.359375 207.726562 " fill-opacity="1" fill-rule="nonzero"/><path fill="#545454" d="M 362.261719 237.335938 C 362.167969 237.488281 362.035156 237.589844 361.863281 237.644531 L 360.457031 238.328125 C 360.371094 238.355469 360.292969 238.390625 360.222656 238.4375 C 359.933594 238.726562 359.570312 238.691406 359.210938 238.691406 C 358.574219 238.664062 357.941406 238.605469 357.3125 238.507812 C 355.546875 238.300781 353.777344 238.265625 352 238.402344 C 350.988281 238.457031 349.976562 238.527344 348.964844 238.507812 C 348.820312 238.507812 348.585938 238.582031 348.550781 238.402344 C 348.515625 238.21875 348.714844 238.148438 348.859375 238.074219 C 349.796875 237.535156 350.84375 237.261719 351.910156 237.082031 C 353.949219 236.742188 355.972656 236.820312 357.980469 237.316406 C 358.621094 237.449219 359.210938 237.703125 359.75 238.074219 C 359.898438 238.179688 360.046875 238.1875 360.203125 238.09375 C 360.707031 237.878906 361.234375 237.644531 361.757812 237.445312 C 361.917969 237.390625 362.0625 237.28125 362.261719 237.335938 Z M 362.261719 237.335938 " fill-opacity="1" fill-rule="nonzero"/><path fill="#545454" d="M 315.90625 232.296875 C 316.097656 232.347656 316.257812 232.445312 316.394531 232.585938 C 316.917969 233.019531 317.460938 233.433594 318.019531 233.8125 C 318.195312 233.914062 318.382812 233.980469 318.582031 234.011719 C 320.789062 234.238281 322.921875 234.777344 324.976562 235.621094 C 325.765625 235.9375 326.453125 236.40625 327.035156 237.027344 C 327.164062 237.15625 327.378906 237.300781 327.269531 237.480469 C 327.164062 237.660156 326.925781 237.570312 326.765625 237.535156 C 325.84375 237.316406 324.976562 236.9375 324.074219 236.683594 C 323.167969 236.433594 321.921875 236.125 320.875 235.765625 C 320.242188 235.546875 319.628906 235.277344 319.03125 235.003906 C 318.4375 234.734375 318.308594 234.445312 317.929688 234.191406 C 317.777344 234.066406 317.613281 233.953125 317.441406 233.847656 C 316.933594 233.539062 316.480469 233.160156 316.089844 232.710938 C 316 232.601562 315.871094 232.511719 315.90625 232.296875 Z M 315.90625 232.296875 " fill-opacity="1" fill-rule="nonzero"/><path fill="#545454" d="M 335.199219 232.332031 C 336.222656 232.367188 337.140625 232.695312 337.945312 233.324219 C 338.089844 233.414062 338.289062 233.542969 338.199219 233.722656 C 338.109375 233.902344 337.894531 233.832031 337.730469 233.777344 C 337.144531 233.609375 336.550781 233.507812 335.941406 233.46875 C 335.566406 233.453125 335.191406 233.484375 334.820312 233.558594 C 334.046875 233.777344 333.613281 234.300781 333.59375 235.132812 C 333.605469 235.597656 333.6875 236.046875 333.847656 236.488281 C 334.007812 236.949219 334.203125 237.402344 334.425781 237.839844 C 334.515625 238.023438 334.695312 238.273438 334.480469 238.417969 C 334.261719 238.5625 334.097656 238.328125 333.953125 238.203125 C 333.125 237.480469 332.527344 236.613281 332.363281 235.511719 C 332.09375 233.667969 333.230469 232.332031 335.199219 232.332031 Z M 335.199219 232.332031 " fill-opacity="1" fill-rule="nonzero"/><path fill="#545454" d="M 375.070312 287.574219 C 374.871094 287.789062 374.636719 287.808594 374.382812 287.863281 C 372.59375 288.1875 370.808594 288.476562 369.054688 288.910156 C 368.777344 288.988281 368.492188 289.046875 368.207031 289.089844 C 368.132812 289.089844 368.0625 289.109375 368.023438 289.019531 C 367.996094 288.9375 368.019531 288.878906 368.097656 288.839844 L 368.601562 288.511719 C 369.746094 287.960938 370.941406 287.601562 372.199219 287.429688 C 372.921875 287.3125 373.652344 287.277344 374.382812 287.320312 C 374.648438 287.3125 374.875 287.394531 375.070312 287.574219 Z M 375.070312 287.574219 " fill-opacity="1" fill-rule="nonzero"/><path fill="#545454" d="M 375.648438 290.246094 C 374.890625 290.410156 368.984375 290.050781 368.566406 289.832031 C 368.710938 289.617188 368.929688 289.632812 369.144531 289.597656 C 370.496094 289.417969 371.84375 289.429688 373.191406 289.632812 C 373.863281 289.710938 374.527344 289.84375 375.179688 290.03125 C 375.355469 290.0625 375.511719 290.132812 375.648438 290.246094 Z M 375.648438 290.246094 " fill-opacity="1" fill-rule="nonzero"/><path fill="#545454" d="M 324.832031 287.953125 C 324.628906 287.921875 324.445312 287.835938 324.289062 287.699219 C 323.683594 287.1875 323.132812 286.613281 322.644531 285.984375 C 322.539062 285.839844 322.339844 285.660156 322.5 285.496094 C 322.664062 285.335938 322.84375 285.53125 322.972656 285.640625 C 323.621094 286.136719 324.171875 286.726562 324.613281 287.410156 C 324.734375 287.574219 324.808594 287.753906 324.832031 287.953125 Z M 324.832031 287.953125 " fill-opacity="1" fill-rule="nonzero"/><path fill="#545454" d="M 326.925781 287.773438 C 326.785156 287.742188 326.671875 287.667969 326.585938 287.554688 C 326.027344 287.039062 325.496094 286.5 324.996094 285.929688 C 324.867188 285.8125 324.761719 285.671875 324.6875 285.515625 C 324.667969 285.460938 324.652344 285.40625 324.707031 285.351562 C 324.757812 285.308594 324.8125 285.308594 324.867188 285.351562 C 324.953125 285.410156 325.03125 285.476562 325.101562 285.550781 C 325.71875 286.21875 326.3125 286.886719 326.855469 287.609375 C 326.890625 287.644531 326.890625 287.683594 326.925781 287.773438 Z M 326.925781 287.773438 " fill-opacity="1" fill-rule="nonzero"/><path fill="#545454" d="M 392.992188 290.121094 C 393.085938 290.253906 393.117188 290.398438 393.082031 290.554688 C 392.9375 292.867188 392.304688 295.015625 390.839844 296.859375 L 390.570312 297.148438 C 390.5 297.25 390.410156 297.273438 390.300781 297.222656 C 390.191406 297.148438 390.246094 297.039062 390.261719 296.949219 C 390.296875 296.855469 390.339844 296.765625 390.390625 296.679688 C 391.335938 294.816406 392.082031 292.878906 392.628906 290.863281 C 392.6875 290.585938 392.808594 290.335938 392.992188 290.121094 Z M 392.992188 290.121094 " fill-opacity="1" fill-rule="nonzero"/><path fill="#545454" d="M 392.863281 281.578125 C 392.425781 281.785156 391.960938 281.894531 391.472656 281.902344 C 391.351562 281.914062 391.277344 281.859375 391.257812 281.738281 C 391.238281 281.613281 391.328125 281.558594 391.4375 281.523438 C 391.828125 281.417969 392.226562 281.386719 392.628906 281.433594 L 392.828125 281.46875 Z M 392.863281 281.578125 " fill-opacity="1" fill-rule="nonzero"/><path fill="#545454" d="M 393.097656 284.539062 C 392.757812 284.773438 392.375 284.882812 391.960938 284.863281 C 391.90625 284.875 391.859375 284.863281 391.816406 284.832031 C 391.773438 284.800781 391.75 284.757812 391.746094 284.703125 C 391.742188 284.601562 391.789062 284.542969 391.890625 284.519531 C 392.292969 284.425781 392.699219 284.433594 393.097656 284.539062 Z M 393.097656 284.539062 " fill-opacity="1" fill-rule="nonzero"/><path fill="#545454" d="M 391.796875 278 C 391.546875 278.277344 391.234375 278.433594 390.859375 278.46875 C 390.800781 278.488281 390.746094 278.480469 390.695312 278.445312 C 390.644531 278.414062 390.613281 278.367188 390.605469 278.308594 C 390.578125 278.183594 390.628906 278.105469 390.75 278.070312 C 391.09375 277.933594 391.441406 277.910156 391.796875 278 Z M 391.796875 278 " fill-opacity="1" fill-rule="nonzero"/><path fill="#545454" d="M 390.660156 274.984375 C 390.660156 275.074219 390.628906 275.152344 390.566406 275.21875 C 390.503906 275.285156 390.425781 275.320312 390.335938 275.324219 C 390.171875 275.324219 390.101562 275.234375 390.082031 275.074219 C 390.085938 274.984375 390.121094 274.910156 390.183594 274.847656 C 390.246094 274.785156 390.320312 274.753906 390.40625 274.746094 C 390.476562 274.734375 390.539062 274.753906 390.59375 274.800781 C 390.644531 274.851562 390.667969 274.910156 390.660156 274.984375 Z M 390.660156 274.984375 " fill-opacity="1" fill-rule="nonzero"/><g fill="#545454" fill-opacity="1"><g transform="translate(456.367023, 290.497095)"><g><path d="M 1.6875 0 L 1.6875 -13.625 L 9.90625 -13.625 L 9.90625 -11.984375 L 3.59375 -11.984375 L 3.59375 -7.875 L 9.203125 -7.875 L 9.203125 -6.265625 L 3.59375 -6.265625 L 3.59375 0 Z M 1.6875 0 "/></g></g></g><g fill="#545454" fill-opacity="1"><g transform="translate(469.045007, 290.497095)"><g><path d="M 1 -5.09375 C 1 -6 1.128906 -6.785156 1.390625 -7.453125 C 1.648438 -8.128906 2 -8.691406 2.4375 -9.140625 C 2.875 -9.585938 3.375 -9.921875 3.9375 -10.140625 C 4.5 -10.367188 5.070312 -10.484375 5.65625 -10.484375 C 7.03125 -10.484375 8.082031 -10.050781 8.8125 -9.1875 C 9.550781 -8.332031 9.921875 -7.023438 9.921875 -5.265625 C 9.921875 -5.191406 9.921875 -5.09375 9.921875 -4.96875 C 9.921875 -4.84375 9.914062 -4.726562 9.90625 -4.625 L 2.90625 -4.625 C 2.988281 -3.5625 3.296875 -2.753906 3.828125 -2.203125 C 4.367188 -1.648438 5.207031 -1.375 6.34375 -1.375 C 6.988281 -1.375 7.53125 -1.425781 7.96875 -1.53125 C 8.40625 -1.644531 8.738281 -1.757812 8.96875 -1.875 L 9.21875 -0.328125 C 9 -0.210938 8.609375 -0.09375 8.046875 0.03125 C 7.492188 0.164062 6.863281 0.234375 6.15625 0.234375 C 5.257812 0.234375 4.488281 0.101562 3.84375 -0.15625 C 3.195312 -0.425781 2.660156 -0.796875 2.234375 -1.265625 C 1.816406 -1.742188 1.503906 -2.304688 1.296875 -2.953125 C 1.097656 -3.609375 1 -4.320312 1 -5.09375 Z M 8.015625 -6.09375 C 8.035156 -6.914062 7.832031 -7.59375 7.40625 -8.125 C 6.976562 -8.65625 6.390625 -8.921875 5.640625 -8.921875 C 5.222656 -8.921875 4.851562 -8.835938 4.53125 -8.671875 C 4.207031 -8.515625 3.929688 -8.300781 3.703125 -8.03125 C 3.484375 -7.769531 3.3125 -7.46875 3.1875 -7.125 C 3.0625 -6.789062 2.984375 -6.445312 2.953125 -6.09375 Z M 8.015625 -6.09375 "/></g></g></g><g fill="#545454" fill-opacity="1"><g transform="translate(482.430588, 290.497095)"><g><path d="M 5.34375 -10.4375 C 5.5 -10.4375 5.675781 -10.425781 5.875 -10.40625 C 6.082031 -10.382812 6.285156 -10.359375 6.484375 -10.328125 C 6.679688 -10.296875 6.859375 -10.265625 7.015625 -10.234375 C 7.179688 -10.203125 7.304688 -10.171875 7.390625 -10.140625 L 7.078125 -8.546875 C 6.929688 -8.597656 6.691406 -8.660156 6.359375 -8.734375 C 6.023438 -8.804688 5.597656 -8.84375 5.078125 -8.84375 C 4.734375 -8.84375 4.394531 -8.804688 4.0625 -8.734375 C 3.726562 -8.660156 3.507812 -8.613281 3.40625 -8.59375 L 3.40625 0 L 1.578125 0 L 1.578125 -9.78125 C 2.003906 -9.945312 2.535156 -10.097656 3.171875 -10.234375 C 3.816406 -10.367188 4.539062 -10.4375 5.34375 -10.4375 Z M 5.34375 -10.4375 "/></g></g></g><g fill="#545454" fill-opacity="1"><g transform="translate(492.415807, 290.497095)"><g><path d="M 3.28125 -10.21875 L 7.15625 -10.21875 L 7.15625 -8.6875 L 3.28125 -8.6875 L 3.28125 -3.96875 C 3.28125 -3.457031 3.316406 -3.035156 3.390625 -2.703125 C 3.472656 -2.367188 3.59375 -2.101562 3.75 -1.90625 C 3.90625 -1.71875 4.101562 -1.582031 4.34375 -1.5 C 4.582031 -1.425781 4.859375 -1.390625 5.171875 -1.390625 C 5.722656 -1.390625 6.164062 -1.453125 6.5 -1.578125 C 6.832031 -1.703125 7.0625 -1.789062 7.1875 -1.84375 L 7.546875 -0.328125 C 7.359375 -0.242188 7.035156 -0.132812 6.578125 0 C 6.117188 0.144531 5.597656 0.21875 5.015625 0.21875 C 4.316406 0.21875 3.738281 0.128906 3.28125 -0.046875 C 2.832031 -0.222656 2.46875 -0.488281 2.1875 -0.84375 C 1.914062 -1.195312 1.722656 -1.628906 1.609375 -2.140625 C 1.503906 -2.660156 1.453125 -3.265625 1.453125 -3.953125 L 1.453125 -13.078125 L 3.28125 -13.390625 Z M 3.28125 -10.21875 "/></g></g></g><g fill="#545454" fill-opacity="1"><g transform="translate(502.715509, 290.497095)"><g><path d="M 3.40625 0 L 1.578125 0 L 1.578125 -10.21875 L 3.40625 -10.21875 Z M 2.484375 -12.0625 C 2.148438 -12.0625 1.867188 -12.171875 1.640625 -12.390625 C 1.410156 -12.609375 1.296875 -12.898438 1.296875 -13.265625 C 1.296875 -13.628906 1.410156 -13.921875 1.640625 -14.140625 C 1.867188 -14.359375 2.148438 -14.46875 2.484375 -14.46875 C 2.804688 -14.46875 3.082031 -14.359375 3.3125 -14.140625 C 3.539062 -13.921875 3.65625 -13.628906 3.65625 -13.265625 C 3.65625 -12.898438 3.539062 -12.609375 3.3125 -12.390625 C 3.082031 -12.171875 2.804688 -12.0625 2.484375 -12.0625 Z M 2.484375 -12.0625 "/></g></g></g><g fill="#545454" fill-opacity="1"><g transform="translate(510.086561, 290.497095)"><g><path d="M 4.640625 0.203125 C 3.515625 0.171875 2.710938 -0.0703125 2.234375 -0.53125 C 1.765625 -0.988281 1.53125 -1.703125 1.53125 -2.671875 L 1.53125 -14.9375 L 3.359375 -15.25 L 3.359375 -2.96875 C 3.359375 -2.664062 3.382812 -2.414062 3.4375 -2.21875 C 3.488281 -2.019531 3.570312 -1.863281 3.6875 -1.75 C 3.8125 -1.632812 3.972656 -1.546875 4.171875 -1.484375 C 4.367188 -1.421875 4.609375 -1.375 4.890625 -1.34375 Z M 4.640625 0.203125 "/></g></g></g><g fill="#545454" fill-opacity="1"><g transform="translate(517.850728, 290.497095)"><g><path d="M 0.515625 -6.734375 L 5.359375 -6.734375 L 5.359375 -5.03125 L 0.515625 -5.03125 Z M 0.515625 -6.734375 "/></g></g></g><g fill="#545454" fill-opacity="1"><g transform="translate(526.125923, 290.497095)"><g><path d="M 10 -6.703125 L 11.90625 -6.703125 L 11.90625 -0.328125 C 11.75 -0.273438 11.523438 -0.21875 11.234375 -0.15625 C 10.941406 -0.09375 10.597656 -0.03125 10.203125 0.03125 C 9.816406 0.101562 9.394531 0.160156 8.9375 0.203125 C 8.476562 0.253906 8.015625 0.28125 7.546875 0.28125 C 6.585938 0.28125 5.710938 0.125 4.921875 -0.1875 C 4.140625 -0.507812 3.46875 -0.972656 2.90625 -1.578125 C 2.34375 -2.179688 1.90625 -2.921875 1.59375 -3.796875 C 1.289062 -4.671875 1.140625 -5.679688 1.140625 -6.828125 C 1.140625 -7.960938 1.3125 -8.972656 1.65625 -9.859375 C 2.007812 -10.742188 2.476562 -11.488281 3.0625 -12.09375 C 3.65625 -12.695312 4.347656 -13.15625 5.140625 -13.46875 C 5.929688 -13.78125 6.78125 -13.9375 7.6875 -13.9375 C 8.300781 -13.9375 8.847656 -13.894531 9.328125 -13.8125 C 9.804688 -13.738281 10.210938 -13.648438 10.546875 -13.546875 C 10.890625 -13.441406 11.171875 -13.335938 11.390625 -13.234375 C 11.609375 -13.128906 11.753906 -13.050781 11.828125 -13 L 11.21875 -11.40625 C 10.84375 -11.65625 10.335938 -11.859375 9.703125 -12.015625 C 9.078125 -12.179688 8.4375 -12.265625 7.78125 -12.265625 C 7.082031 -12.265625 6.445312 -12.140625 5.875 -11.890625 C 5.3125 -11.640625 4.828125 -11.28125 4.421875 -10.8125 C 4.023438 -10.34375 3.71875 -9.769531 3.5 -9.09375 C 3.28125 -8.414062 3.171875 -7.660156 3.171875 -6.828125 C 3.171875 -6.015625 3.265625 -5.269531 3.453125 -4.59375 C 3.640625 -3.925781 3.925781 -3.351562 4.3125 -2.875 C 4.695312 -2.394531 5.175781 -2.023438 5.75 -1.765625 C 6.320312 -1.503906 6.992188 -1.375 7.765625 -1.375 C 8.316406 -1.375 8.785156 -1.398438 9.171875 -1.453125 C 9.554688 -1.515625 9.832031 -1.570312 10 -1.625 Z M 10 -6.703125 "/></g></g></g><g fill="#545454" fill-opacity="1"><g transform="translate(541.732568, 290.497095)"><g><path d="M 1 -5.09375 C 1 -6 1.128906 -6.785156 1.390625 -7.453125 C 1.648438 -8.128906 2 -8.691406 2.4375 -9.140625 C 2.875 -9.585938 3.375 -9.921875 3.9375 -10.140625 C 4.5 -10.367188 5.070312 -10.484375 5.65625 -10.484375 C 7.03125 -10.484375 8.082031 -10.050781 8.8125 -9.1875 C 9.550781 -8.332031 9.921875 -7.023438 9.921875 -5.265625 C 9.921875 -5.191406 9.921875 -5.09375 9.921875 -4.96875 C 9.921875 -4.84375 9.914062 -4.726562 9.90625 -4.625 L 2.90625 -4.625 C 2.988281 -3.5625 3.296875 -2.753906 3.828125 -2.203125 C 4.367188 -1.648438 5.207031 -1.375 6.34375 -1.375 C 6.988281 -1.375 7.53125 -1.425781 7.96875 -1.53125 C 8.40625 -1.644531 8.738281 -1.757812 8.96875 -1.875 L 9.21875 -0.328125 C 9 -0.210938 8.609375 -0.09375 8.046875 0.03125 C 7.492188 0.164062 6.863281 0.234375 6.15625 0.234375 C 5.257812 0.234375 4.488281 0.101562 3.84375 -0.15625 C 3.195312 -0.425781 2.660156 -0.796875 2.234375 -1.265625 C 1.816406 -1.742188 1.503906 -2.304688 1.296875 -2.953125 C 1.097656 -3.609375 1 -4.320312 1 -5.09375 Z M 8.015625 -6.09375 C 8.035156 -6.914062 7.832031 -7.59375 7.40625 -8.125 C 6.976562 -8.65625 6.390625 -8.921875 5.640625 -8.921875 C 5.222656 -8.921875 4.851562 -8.835938 4.53125 -8.671875 C 4.207031 -8.515625 3.929688 -8.300781 3.703125 -8.03125 C 3.484375 -7.769531 3.3125 -7.46875 3.1875 -7.125 C 3.0625 -6.789062 2.984375 -6.445312 2.953125 -6.09375 Z M 8.015625 -6.09375 "/></g></g></g><g fill="#545454" fill-opacity="1"><g transform="translate(555.118149, 290.497095)"><g><path d="M 3.40625 -9.765625 C 3.625 -9.910156 3.957031 -10.0625 4.40625 -10.21875 C 4.863281 -10.375 5.382812 -10.453125 5.96875 -10.453125 C 6.707031 -10.453125 7.359375 -10.320312 7.921875 -10.0625 C 8.492188 -9.800781 8.976562 -9.429688 9.375 -8.953125 C 9.769531 -8.484375 10.066406 -7.921875 10.265625 -7.265625 C 10.472656 -6.617188 10.578125 -5.898438 10.578125 -5.109375 C 10.578125 -4.285156 10.453125 -3.539062 10.203125 -2.875 C 9.960938 -2.21875 9.617188 -1.660156 9.171875 -1.203125 C 8.734375 -0.742188 8.195312 -0.390625 7.5625 -0.140625 C 6.9375 0.109375 6.226562 0.234375 5.4375 0.234375 C 4.59375 0.234375 3.84375 0.171875 3.1875 0.046875 C 2.53125 -0.0664062 1.992188 -0.179688 1.578125 -0.296875 L 1.578125 -14.9375 L 3.40625 -15.25 Z M 3.40625 -1.59375 C 3.582031 -1.539062 3.835938 -1.488281 4.171875 -1.4375 C 4.503906 -1.394531 4.921875 -1.375 5.421875 -1.375 C 6.410156 -1.375 7.195312 -1.695312 7.78125 -2.34375 C 8.375 -3 8.671875 -3.921875 8.671875 -5.109375 C 8.671875 -5.628906 8.617188 -6.117188 8.515625 -6.578125 C 8.410156 -7.035156 8.238281 -7.429688 8 -7.765625 C 7.757812 -8.109375 7.453125 -8.375 7.078125 -8.5625 C 6.710938 -8.75 6.265625 -8.84375 5.734375 -8.84375 C 5.242188 -8.84375 4.785156 -8.753906 4.359375 -8.578125 C 3.941406 -8.410156 3.625 -8.238281 3.40625 -8.0625 Z M 3.40625 -1.59375 "/></g></g></g><g fill="#545454" fill-opacity="1"><g transform="translate(569.093391, 290.497095)"><g><path d="M 1 -5.09375 C 1 -6 1.128906 -6.785156 1.390625 -7.453125 C 1.648438 -8.128906 2 -8.691406 2.4375 -9.140625 C 2.875 -9.585938 3.375 -9.921875 3.9375 -10.140625 C 4.5 -10.367188 5.070312 -10.484375 5.65625 -10.484375 C 7.03125 -10.484375 8.082031 -10.050781 8.8125 -9.1875 C 9.550781 -8.332031 9.921875 -7.023438 9.921875 -5.265625 C 9.921875 -5.191406 9.921875 -5.09375 9.921875 -4.96875 C 9.921875 -4.84375 9.914062 -4.726562 9.90625 -4.625 L 2.90625 -4.625 C 2.988281 -3.5625 3.296875 -2.753906 3.828125 -2.203125 C 4.367188 -1.648438 5.207031 -1.375 6.34375 -1.375 C 6.988281 -1.375 7.53125 -1.425781 7.96875 -1.53125 C 8.40625 -1.644531 8.738281 -1.757812 8.96875 -1.875 L 9.21875 -0.328125 C 9 -0.210938 8.609375 -0.09375 8.046875 0.03125 C 7.492188 0.164062 6.863281 0.234375 6.15625 0.234375 C 5.257812 0.234375 4.488281 0.101562 3.84375 -0.15625 C 3.195312 -0.425781 2.660156 -0.796875 2.234375 -1.265625 C 1.816406 -1.742188 1.503906 -2.304688 1.296875 -2.953125 C 1.097656 -3.609375 1 -4.320312 1 -5.09375 Z M 8.015625 -6.09375 C 8.035156 -6.914062 7.832031 -7.59375 7.40625 -8.125 C 6.976562 -8.65625 6.390625 -8.921875 5.640625 -8.921875 C 5.222656 -8.921875 4.851562 -8.835938 4.53125 -8.671875 C 4.207031 -8.515625 3.929688 -8.300781 3.703125 -8.03125 C 3.484375 -7.769531 3.3125 -7.46875 3.1875 -7.125 C 3.0625 -6.789062 2.984375 -6.445312 2.953125 -6.09375 Z M 8.015625 -6.09375 "/></g></g></g><g fill="#545454" fill-opacity="1"><g transform="translate(582.478972, 290.497095)"><g><path d="M 0.515625 -6.734375 L 5.359375 -6.734375 L 5.359375 -5.03125 L 0.515625 -5.03125 Z M 0.515625 -6.734375 "/></g></g></g><g fill="#545454" fill-opacity="1"><g transform="translate(590.754167, 290.497095)"><g><path d="M 5.359375 0.125 C 5.085938 0.125 4.789062 0.113281 4.46875 0.09375 C 4.144531 0.0820312 3.820312 0.0625 3.5 0.03125 C 3.1875 0.0078125 2.867188 -0.0195312 2.546875 -0.0625 C 2.234375 -0.101562 1.945312 -0.15625 1.6875 -0.21875 L 1.6875 -13.421875 C 1.945312 -13.492188 2.234375 -13.546875 2.546875 -13.578125 C 2.867188 -13.617188 3.1875 -13.648438 3.5 -13.671875 C 3.820312 -13.703125 4.140625 -13.722656 4.453125 -13.734375 C 4.773438 -13.753906 5.070312 -13.765625 5.34375 -13.765625 C 6.132812 -13.765625 6.875 -13.703125 7.5625 -13.578125 C 8.25 -13.460938 8.84375 -13.265625 9.34375 -12.984375 C 9.851562 -12.703125 10.25 -12.332031 10.53125 -11.875 C 10.820312 -11.414062 10.96875 -10.851562 10.96875 -10.1875 C 10.96875 -9.4375 10.789062 -8.820312 10.4375 -8.34375 C 10.082031 -7.863281 9.609375 -7.503906 9.015625 -7.265625 C 9.816406 -7.035156 10.453125 -6.664062 10.921875 -6.15625 C 11.398438 -5.644531 11.640625 -4.921875 11.640625 -3.984375 C 11.640625 -2.628906 11.132812 -1.601562 10.125 -0.90625 C 9.125 -0.21875 7.535156 0.125 5.359375 0.125 Z M 3.578125 -6.34375 L 3.578125 -1.546875 C 3.722656 -1.535156 3.894531 -1.523438 4.09375 -1.515625 C 4.257812 -1.503906 4.457031 -1.492188 4.6875 -1.484375 C 4.914062 -1.472656 5.179688 -1.46875 5.484375 -1.46875 C 6.046875 -1.46875 6.578125 -1.503906 7.078125 -1.578125 C 7.585938 -1.648438 8.03125 -1.773438 8.40625 -1.953125 C 8.789062 -2.140625 9.097656 -2.394531 9.328125 -2.71875 C 9.554688 -3.050781 9.671875 -3.46875 9.671875 -3.96875 C 9.671875 -4.414062 9.582031 -4.789062 9.40625 -5.09375 C 9.238281 -5.40625 8.992188 -5.648438 8.671875 -5.828125 C 8.359375 -6.015625 7.976562 -6.144531 7.53125 -6.21875 C 7.082031 -6.300781 6.582031 -6.34375 6.03125 -6.34375 Z M 3.578125 -7.875 L 5.578125 -7.875 C 6.054688 -7.875 6.503906 -7.90625 6.921875 -7.96875 C 7.335938 -8.039062 7.695312 -8.160156 8 -8.328125 C 8.3125 -8.503906 8.554688 -8.726562 8.734375 -9 C 8.910156 -9.28125 9 -9.628906 9 -10.046875 C 9 -10.441406 8.90625 -10.769531 8.71875 -11.03125 C 8.539062 -11.300781 8.289062 -11.519531 7.96875 -11.6875 C 7.644531 -11.851562 7.265625 -11.972656 6.828125 -12.046875 C 6.398438 -12.128906 5.945312 -12.171875 5.46875 -12.171875 C 4.976562 -12.171875 4.59375 -12.160156 4.3125 -12.140625 C 4.039062 -12.128906 3.796875 -12.113281 3.578125 -12.09375 Z M 3.578125 -7.875 "/></g></g></g><g fill="#545454" fill-opacity="1"><g transform="translate(605.790804, 290.497095)"><g><path d="M 1 -5.09375 C 1 -6 1.128906 -6.785156 1.390625 -7.453125 C 1.648438 -8.128906 2 -8.691406 2.4375 -9.140625 C 2.875 -9.585938 3.375 -9.921875 3.9375 -10.140625 C 4.5 -10.367188 5.070312 -10.484375 5.65625 -10.484375 C 7.03125 -10.484375 8.082031 -10.050781 8.8125 -9.1875 C 9.550781 -8.332031 9.921875 -7.023438 9.921875 -5.265625 C 9.921875 -5.191406 9.921875 -5.09375 9.921875 -4.96875 C 9.921875 -4.84375 9.914062 -4.726562 9.90625 -4.625 L 2.90625 -4.625 C 2.988281 -3.5625 3.296875 -2.753906 3.828125 -2.203125 C 4.367188 -1.648438 5.207031 -1.375 6.34375 -1.375 C 6.988281 -1.375 7.53125 -1.425781 7.96875 -1.53125 C 8.40625 -1.644531 8.738281 -1.757812 8.96875 -1.875 L 9.21875 -0.328125 C 9 -0.210938 8.609375 -0.09375 8.046875 0.03125 C 7.492188 0.164062 6.863281 0.234375 6.15625 0.234375 C 5.257812 0.234375 4.488281 0.101562 3.84375 -0.15625 C 3.195312 -0.425781 2.660156 -0.796875 2.234375 -1.265625 C 1.816406 -1.742188 1.503906 -2.304688 1.296875 -2.953125 C 1.097656 -3.609375 1 -4.320312 1 -5.09375 Z M 8.015625 -6.09375 C 8.035156 -6.914062 7.832031 -7.59375 7.40625 -8.125 C 6.976562 -8.65625 6.390625 -8.921875 5.640625 -8.921875 C 5.222656 -8.921875 4.851562 -8.835938 4.53125 -8.671875 C 4.207031 -8.515625 3.929688 -8.300781 3.703125 -8.03125 C 3.484375 -7.769531 3.3125 -7.46875 3.1875 -7.125 C 3.0625 -6.789062 2.984375 -6.445312 2.953125 -6.09375 Z M 8.015625 -6.09375 "/></g></g></g><g fill="#545454" fill-opacity="1"><g transform="translate(619.176385, 290.497095)"><g><path d="M 3.40625 -9.765625 C 3.625 -9.910156 3.957031 -10.0625 4.40625 -10.21875 C 4.863281 -10.375 5.382812 -10.453125 5.96875 -10.453125 C 6.707031 -10.453125 7.359375 -10.320312 7.921875 -10.0625 C 8.492188 -9.800781 8.976562 -9.429688 9.375 -8.953125 C 9.769531 -8.484375 10.066406 -7.921875 10.265625 -7.265625 C 10.472656 -6.617188 10.578125 -5.898438 10.578125 -5.109375 C 10.578125 -4.285156 10.453125 -3.539062 10.203125 -2.875 C 9.960938 -2.21875 9.617188 -1.660156 9.171875 -1.203125 C 8.734375 -0.742188 8.195312 -0.390625 7.5625 -0.140625 C 6.9375 0.109375 6.226562 0.234375 5.4375 0.234375 C 4.59375 0.234375 3.84375 0.171875 3.1875 0.046875 C 2.53125 -0.0664062 1.992188 -0.179688 1.578125 -0.296875 L 1.578125 -14.9375 L 3.40625 -15.25 Z M 3.40625 -1.59375 C 3.582031 -1.539062 3.835938 -1.488281 4.171875 -1.4375 C 4.503906 -1.394531 4.921875 -1.375 5.421875 -1.375 C 6.410156 -1.375 7.195312 -1.695312 7.78125 -2.34375 C 8.375 -3 8.671875 -3.921875 8.671875 -5.109375 C 8.671875 -5.628906 8.617188 -6.117188 8.515625 -6.578125 C 8.410156 -7.035156 8.238281 -7.429688 8 -7.765625 C 7.757812 -8.109375 7.453125 -8.375 7.078125 -8.5625 C 6.710938 -8.75 6.265625 -8.84375 5.734375 -8.84375 C 5.242188 -8.84375 4.785156 -8.753906 4.359375 -8.578125 C 3.941406 -8.410156 3.625 -8.238281 3.40625 -8.0625 Z M 3.40625 -1.59375 "/></g></g></g><g fill="#545454" fill-opacity="1"><g transform="translate(633.151626, 290.497095)"><g><path d="M 1 -5.09375 C 1 -6 1.128906 -6.785156 1.390625 -7.453125 C 1.648438 -8.128906 2 -8.691406 2.4375 -9.140625 C 2.875 -9.585938 3.375 -9.921875 3.9375 -10.140625 C 4.5 -10.367188 5.070312 -10.484375 5.65625 -10.484375 C 7.03125 -10.484375 8.082031 -10.050781 8.8125 -9.1875 C 9.550781 -8.332031 9.921875 -7.023438 9.921875 -5.265625 C 9.921875 -5.191406 9.921875 -5.09375 9.921875 -4.96875 C 9.921875 -4.84375 9.914062 -4.726562 9.90625 -4.625 L 2.90625 -4.625 C 2.988281 -3.5625 3.296875 -2.753906 3.828125 -2.203125 C 4.367188 -1.648438 5.207031 -1.375 6.34375 -1.375 C 6.988281 -1.375 7.53125 -1.425781 7.96875 -1.53125 C 8.40625 -1.644531 8.738281 -1.757812 8.96875 -1.875 L 9.21875 -0.328125 C 9 -0.210938 8.609375 -0.09375 8.046875 0.03125 C 7.492188 0.164062 6.863281 0.234375 6.15625 0.234375 C 5.257812 0.234375 4.488281 0.101562 3.84375 -0.15625 C 3.195312 -0.425781 2.660156 -0.796875 2.234375 -1.265625 C 1.816406 -1.742188 1.503906 -2.304688 1.296875 -2.953125 C 1.097656 -3.609375 1 -4.320312 1 -5.09375 Z M 8.015625 -6.09375 C 8.035156 -6.914062 7.832031 -7.59375 7.40625 -8.125 C 6.976562 -8.65625 6.390625 -8.921875 5.640625 -8.921875 C 5.222656 -8.921875 4.851562 -8.835938 4.53125 -8.671875 C 4.207031 -8.515625 3.929688 -8.300781 3.703125 -8.03125 C 3.484375 -7.769531 3.3125 -7.46875 3.1875 -7.125 C 3.0625 -6.789062 2.984375 -6.445312 2.953125 -6.09375 Z M 8.015625 -6.09375 "/></g></g></g><g fill="#545454" fill-opacity="1"><g transform="translate(646.537208, 290.497095)"><g><path d="M 5.265625 -5.625 C 5.660156 -5.320312 6.078125 -4.945312 6.515625 -4.5 C 6.953125 -4.050781 7.382812 -3.566406 7.8125 -3.046875 C 8.238281 -2.535156 8.640625 -2.015625 9.015625 -1.484375 C 9.398438 -0.953125 9.722656 -0.457031 9.984375 0 L 7.84375 0 C 7.570312 -0.457031 7.253906 -0.925781 6.890625 -1.40625 C 6.523438 -1.882812 6.144531 -2.34375 5.75 -2.78125 C 5.363281 -3.21875 4.96875 -3.617188 4.5625 -3.984375 C 4.15625 -4.359375 3.769531 -4.664062 3.40625 -4.90625 L 3.40625 0 L 1.578125 0 L 1.578125 -14.9375 L 3.40625 -15.25 L 3.40625 -5.9375 C 3.71875 -6.25 4.0625 -6.59375 4.4375 -6.96875 C 4.820312 -7.351562 5.195312 -7.742188 5.5625 -8.140625 C 5.925781 -8.535156 6.269531 -8.910156 6.59375 -9.265625 C 6.925781 -9.628906 7.210938 -9.945312 7.453125 -10.21875 L 9.59375 -10.21875 C 9.289062 -9.894531 8.960938 -9.535156 8.609375 -9.140625 C 8.253906 -8.742188 7.882812 -8.34375 7.5 -7.9375 C 7.125 -7.539062 6.742188 -7.144531 6.359375 -6.75 C 5.972656 -6.351562 5.609375 -5.976562 5.265625 -5.625 Z M 5.265625 -5.625 "/></g></g></g></svg>